<svg version="1.1" id="Layer_1" xmlns="http://www.w3.org/2000/svg" xmlns:xlink="http://www.w3.org/1999/xlink" x="0px" y="0px"
	 width="100%" viewBox="0 0 1141 322" enable-background="new 0 0 1141 322" xml:space="preserve">
<path fill="#FEFEFE" opacity="1.000000" stroke="none" 
	d="
M801.000000,323.000000 
	C534.372192,323.000000 267.744354,323.000000 1.058270,323.000000 
	C1.058270,215.721176 1.058270,108.442314 1.058270,1.081723 
	C381.223419,1.081723 761.446838,1.081723 1141.835205,1.081723 
	C1141.835205,108.333168 1141.835205,215.666550 1141.835205,323.000000 
	C1036.558594,323.000000 931.240540,323.000000 825.599731,322.625549 
	C846.875916,319.264709 860.919922,306.693054 868.427063,286.879364 
	C876.191040,266.387787 883.084900,245.566360 890.350525,224.886124 
	C898.772217,200.915192 907.154419,176.930283 915.673950,152.994247 
	C916.187195,151.552032 917.681213,149.512634 918.855042,149.416672 
	C923.775513,149.014389 928.747742,149.246918 934.134888,149.246918 
	C934.134888,151.381699 934.134583,153.012222 934.134827,154.642746 
	C934.138184,179.138412 934.033508,203.634720 934.178589,228.129547 
	C934.299438,248.535934 944.292786,261.776611 963.984070,267.065796 
	C977.973816,270.823547 991.962708,269.544617 1006.127441,265.207733 
	C1003.965637,255.001495 1001.846252,244.995544 999.688721,234.809219 
	C998.024231,234.961075 996.705566,234.967529 995.433716,235.214859 
	C981.143677,237.993530 975.054871,232.591583 975.374634,218.832260 
	C975.869995,197.514145 975.515625,176.176254 975.521484,154.846756 
	C975.521973,153.094345 975.521667,151.341934 975.521667,149.162552 
	C985.177490,149.162552 994.093628,149.162552 1003.069336,149.162552 
	C1003.069336,138.659317 1003.069336,128.596359 1003.069336,117.971313 
	C993.723511,117.971313 984.672363,117.971313 975.255005,117.971313 
	C975.255005,105.979286 975.255005,94.552002 975.255005,83.122078 
	C961.430603,83.122078 947.998291,83.122078 933.981812,83.122078 
	C933.981812,94.905441 933.981812,106.445839 933.981812,118.151787 
	C917.079956,118.151787 900.764404,118.151787 884.150574,118.151787 
	C873.746338,154.636002 863.368591,191.027313 852.990845,227.418625 
	C852.469116,227.413620 851.947327,227.408615 851.425598,227.403595 
	C841.130554,190.971252 830.835571,154.538895 820.454041,117.800400 
	C806.359131,117.800400 792.783508,117.800400 779.286072,117.800400 
	C778.224426,96.462944 767.463623,82.537720 748.547729,74.661255 
	C738.132690,70.324478 727.111023,68.831917 715.861267,68.841789 
	C689.865845,68.864609 663.870483,68.847893 637.875061,68.862068 
	C636.763123,68.862671 635.651306,69.011665 634.506958,69.093872 
	C634.506958,80.480820 634.506958,91.522675 634.506958,102.809921 
	C636.199463,102.809921 637.515442,102.807961 638.831421,102.810204 
	C663.492371,102.852318 688.157043,102.653915 712.812744,103.036537 
	C725.622620,103.235344 735.466003,111.860214 736.857788,122.857094 
	C738.472595,135.615158 732.110596,147.109039 719.017151,149.555374 
	C705.160583,152.144302 690.738342,151.705841 675.963013,152.627136 
	C675.963013,141.228683 675.963013,131.263641 675.963013,120.166672 
	C674.972717,121.976860 674.483032,122.638054 674.223511,123.379745 
	C661.890381,158.637054 649.843018,193.997635 637.120056,229.113480 
	C632.558777,241.702637 635.012512,254.252792 634.077637,267.002838 
	C649.857422,267.002838 664.852966,267.127594 679.845642,266.970917 
	C698.160828,266.779510 716.569214,267.410095 734.764160,265.767303 
	C759.289734,263.552856 782.318665,248.533478 786.669983,220.089737 
	C790.102478,197.652054 779.408142,176.549255 758.544861,167.531265 
	C753.845276,165.499908 748.623718,164.676117 742.011841,162.844757 
	C762.839783,157.277802 776.314087,146.261353 779.221313,124.948593 
	C779.649963,125.705177 779.947571,126.085579 780.098267,126.517265 
	C796.456116,173.390411 812.829590,220.258179 829.128174,267.151917 
	C832.392029,276.542694 823.548706,289.733765 813.577881,289.995972 
	C808.388977,290.132446 803.168396,289.061188 797.673950,288.506348 
	C794.687500,298.394684 791.674194,308.371979 788.661072,318.348541 
	C792.944153,319.963165 796.972107,321.481567 801.000000,323.000000 
M31.500006,3.959865 
	C21.806427,3.959865 12.112850,3.959865 2.050202,3.959865 
	C2.744981,5.565106 3.111704,6.472184 3.524599,7.357734 
	C19.179396,40.933044 34.843857,74.503845 50.495796,108.080482 
	C82.783112,177.343445 115.083214,246.600464 147.278900,315.906006 
	C148.593475,318.735840 150.065094,319.767731 153.203369,319.733826 
	C169.198883,319.561096 185.197159,319.649414 201.194443,319.626984 
	C202.433777,319.625244 203.672897,319.473907 205.495270,319.353607 
	C164.318924,231.010208 123.397987,143.214813 82.202576,54.830536 
	C105.770554,54.830536 128.402039,54.830536 151.193604,54.830536 
	C151.193604,37.781891 151.193604,21.016531 151.193604,3.959865 
	C111.457924,3.959865 71.978966,3.959865 31.500006,3.959865 
M325.445099,232.980347 
	C360.988403,156.773911 396.531738,80.567474 432.257812,3.969214 
	C404.770905,3.969214 377.951569,3.929899 351.133484,4.092731 
	C349.876862,4.100361 348.025208,5.647915 347.475464,6.920877 
	C342.672272,18.042837 338.087677,29.259516 333.471039,40.461590 
	C331.549255,45.124664 329.706787,49.820435 327.549927,55.194908 
	C336.101715,55.194908 343.785339,55.194908 351.818420,55.194908 
	C310.640656,143.536407 269.709412,231.348999 228.544052,319.663818 
	C247.043594,319.663818 264.533783,319.748810 282.019745,319.517120 
	C283.571136,319.496582 285.810577,317.751099 286.525757,316.237457 
	C299.506622,288.765991 312.302521,261.207123 325.445099,232.980347 
M1139.793335,180.911682 
	C1139.545532,179.098083 1139.309082,177.282852 1139.047974,175.471146 
	C1136.987183,161.166168 1131.919678,148.174103 1122.037354,137.392532 
	C1109.265137,123.458107 1092.916626,117.381241 1074.448730,116.598343 
	C1046.801147,115.426270 1024.028931,124.706078 1009.358826,149.189026 
	C997.997681,168.149780 996.132080,188.959320 999.518921,210.455887 
	C1002.050659,226.525330 1008.408936,240.718292 1020.505310,251.871429 
	C1037.806641,267.823730 1058.884888,271.347504 1081.355835,269.561035 
	C1097.517944,268.276093 1112.259644,263.214905 1124.246948,251.787125 
	C1131.987061,244.408051 1137.085938,235.538818 1139.222412,224.530090 
	C1126.271729,223.628998 1113.856689,222.765167 1101.550049,221.908875 
	C1093.381226,240.410416 1072.421997,241.674286 1059.124756,236.925247 
	C1046.165649,232.296967 1037.313110,217.129318 1039.597534,203.106079 
	C1072.931885,203.106079 1106.337769,203.106079 1139.869995,203.106079 
	C1139.869995,195.741394 1139.869995,188.792389 1139.793335,180.911682 
M566.052612,168.476425 
	C561.263062,152.085938 556.473450,135.695435 551.654907,119.205719 
	C537.178162,119.205719 522.894409,119.205719 508.127167,119.205719 
	C525.526428,168.968964 542.819824,218.429184 560.079895,267.794373 
	C575.747131,267.794373 591.055847,267.794373 606.569946,267.794373 
	C623.870300,218.299515 641.144409,168.879852 658.528381,119.145699 
	C643.663879,119.145699 629.514465,119.145699 614.901062,119.145699 
	C604.628601,154.528824 594.340759,189.964996 584.052917,225.401184 
	C583.519104,225.298004 582.985352,225.194839 582.451538,225.091675 
	C577.040649,206.484741 571.629761,187.877808 566.052612,168.476425 
M213.371231,188.154007 
	C218.711212,199.519669 224.051178,210.885315 229.845322,223.217621 
	C260.196686,149.756821 290.194794,77.151054 320.436432,3.955782 
	C318.237549,3.955782 316.636902,3.955879 315.036255,3.955767 
	C300.044067,3.954715 285.047760,4.146283 270.062408,3.825866 
	C265.985809,3.738701 264.352966,5.173014 262.902740,8.703154 
	C242.652817,57.994965 222.233841,107.217346 202.013077,156.521042 
	C201.184631,158.541016 201.176163,161.501144 202.023117,163.498520 
	C205.455109,171.592026 209.371338,179.480179 213.371231,188.154007 
z"/>
<path fill="#030303" opacity="1.000000" stroke="none" 
	d="
M801.444153,323.000000 
	C796.972107,321.481567 792.944153,319.963165 788.661072,318.348541 
	C791.674194,308.371979 794.687500,298.394684 797.673950,288.506348 
	C803.168396,289.061188 808.388977,290.132446 813.577881,289.995972 
	C823.548706,289.733765 832.392029,276.542694 829.128174,267.151917 
	C812.829590,220.258179 796.456116,173.390411 780.098267,126.517265 
	C779.947571,126.085579 779.649963,125.705177 779.221313,124.948593 
	C776.314087,146.261353 762.839783,157.277802 742.011841,162.844757 
	C748.623718,164.676117 753.845276,165.499908 758.544861,167.531265 
	C779.408142,176.549255 790.102478,197.652054 786.669983,220.089737 
	C782.318665,248.533478 759.289734,263.552856 734.764160,265.767303 
	C716.569214,267.410095 698.160828,266.779510 679.845642,266.970917 
	C664.852966,267.127594 649.857422,267.002838 634.077637,267.002838 
	C635.012512,254.252792 632.558777,241.702637 637.120056,229.113480 
	C649.843018,193.997635 661.890381,158.637054 674.223511,123.379745 
	C674.483032,122.638054 674.972717,121.976860 675.963013,120.166672 
	C675.963013,131.263641 675.963013,141.228683 675.963013,152.627136 
	C690.738342,151.705841 705.160583,152.144302 719.017151,149.555374 
	C732.110596,147.109039 738.472595,135.615158 736.857788,122.857094 
	C735.466003,111.860214 725.622620,103.235344 712.812744,103.036537 
	C688.157043,102.653915 663.492371,102.852318 638.831421,102.810204 
	C637.515442,102.807961 636.199463,102.809921 634.506958,102.809921 
	C634.506958,91.522675 634.506958,80.480820 634.506958,69.093872 
	C635.651306,69.011665 636.763123,68.862671 637.875061,68.862068 
	C663.870483,68.847893 689.865845,68.864609 715.861267,68.841789 
	C727.111023,68.831917 738.132690,70.324478 748.547729,74.661255 
	C767.463623,82.537720 778.224426,96.462944 779.286072,117.800400 
	C792.783508,117.800400 806.359131,117.800400 820.454041,117.800400 
	C830.835571,154.538895 841.130554,190.971252 851.425598,227.403595 
	C851.947327,227.408615 852.469116,227.413620 852.990845,227.418625 
	C863.368591,191.027313 873.746338,154.636002 884.150574,118.151787 
	C900.764404,118.151787 917.079956,118.151787 933.981812,118.151787 
	C933.981812,106.445839 933.981812,94.905441 933.981812,83.122078 
	C947.998291,83.122078 961.430603,83.122078 975.255005,83.122078 
	C975.255005,94.552002 975.255005,105.979286 975.255005,117.971313 
	C984.672363,117.971313 993.723511,117.971313 1003.069336,117.971313 
	C1003.069336,128.596359 1003.069336,138.659317 1003.069336,149.162552 
	C994.093628,149.162552 985.177490,149.162552 975.521667,149.162552 
	C975.521667,151.341934 975.521973,153.094345 975.521484,154.846756 
	C975.515625,176.176254 975.869995,197.514145 975.374634,218.832260 
	C975.054871,232.591583 981.143677,237.993530 995.433716,235.214859 
	C996.705566,234.967529 998.024231,234.961075 999.688721,234.809219 
	C1001.846252,244.995544 1003.965637,255.001495 1006.127441,265.207733 
	C991.962708,269.544617 977.973816,270.823547 963.984070,267.065796 
	C944.292786,261.776611 934.299438,248.535934 934.178589,228.129547 
	C934.033508,203.634720 934.138184,179.138412 934.134827,154.642746 
	C934.134583,153.012222 934.134888,151.381699 934.134888,149.246918 
	C928.747742,149.246918 923.775513,149.014389 918.855042,149.416672 
	C917.681213,149.512634 916.187195,151.552032 915.673950,152.994247 
	C907.154419,176.930283 898.772217,200.915192 890.350525,224.886124 
	C883.084900,245.566360 876.191040,266.387787 868.427063,286.879364 
	C860.919922,306.693054 846.875916,319.264709 825.138428,322.625549 
	C823.933289,323.000000 822.866638,323.000000 821.182251,322.638000 
	C816.709778,322.517334 812.854858,322.758667 809.000000,323.000000 
	C806.629456,323.000000 804.258850,323.000000 801.444153,323.000000 
M690.506836,180.157181 
	C685.752808,180.157181 680.998840,180.157181 676.388733,180.157181 
	C676.388733,198.089828 676.388733,215.295578 676.388733,231.949753 
	C691.668518,231.949753 706.621704,232.535172 721.500549,231.736542 
	C730.858398,231.234253 738.710083,226.586960 742.168884,217.015762 
	C748.151672,200.460724 737.768250,183.289871 719.872742,181.083694 
	C710.520813,179.930771 700.967346,180.413315 690.506836,180.157181 
z"/>
<path fill="#4A4A4A" opacity="1.000000" stroke="none" 
	d="
M809.460632,323.000000 
	C812.854858,322.758667 816.709778,322.517334 820.782349,322.638000 
	C817.307068,323.000000 813.614197,323.000000 809.460632,323.000000 
z"/>
<path fill="#020202" opacity="1.000000" stroke="none" 
	d="
M32.000008,3.959865 
	C71.978966,3.959865 111.457924,3.959865 151.193604,3.959865 
	C151.193604,21.016531 151.193604,37.781891 151.193604,54.830536 
	C128.402039,54.830536 105.770554,54.830536 82.202576,54.830536 
	C123.397987,143.214813 164.318924,231.010208 205.495270,319.353607 
	C203.672897,319.473907 202.433777,319.625244 201.194443,319.626984 
	C185.197159,319.649414 169.198883,319.561096 153.203369,319.733826 
	C150.065094,319.767731 148.593475,318.735840 147.278900,315.906006 
	C115.083214,246.600464 82.783112,177.343445 50.495796,108.080482 
	C34.843857,74.503845 19.179396,40.933044 3.524599,7.357734 
	C3.111704,6.472184 2.744981,5.565106 2.050202,3.959865 
	C12.112850,3.959865 21.806427,3.959865 32.000008,3.959865 
z"/>
<path fill="#020202" opacity="1.000000" stroke="none" 
	d="
M325.291443,233.323593 
	C312.302521,261.207123 299.506622,288.765991 286.525757,316.237457 
	C285.810577,317.751099 283.571136,319.496582 282.019745,319.517120 
	C264.533783,319.748810 247.043594,319.663818 228.544052,319.663818 
	C269.709412,231.348999 310.640656,143.536407 351.818420,55.194908 
	C343.785339,55.194908 336.101715,55.194908 327.549927,55.194908 
	C329.706787,49.820435 331.549255,45.124664 333.471039,40.461590 
	C338.087677,29.259516 342.672272,18.042837 347.475464,6.920877 
	C348.025208,5.647915 349.876862,4.100361 351.133484,4.092731 
	C377.951569,3.929899 404.770905,3.969214 432.257812,3.969214 
	C396.531738,80.567474 360.988403,156.773911 325.291443,233.323593 
z"/>
<path fill="#020202" opacity="1.000000" stroke="none" 
	d="
M1139.831665,181.377533 
	C1139.869995,188.792389 1139.869995,195.741394 1139.869995,203.106079 
	C1106.337769,203.106079 1072.931885,203.106079 1039.597534,203.106079 
	C1037.313110,217.129318 1046.165649,232.296967 1059.124756,236.925247 
	C1072.421997,241.674286 1093.381226,240.410416 1101.550049,221.908875 
	C1113.856689,222.765167 1126.271729,223.628998 1139.222412,224.530090 
	C1137.085938,235.538818 1131.987061,244.408051 1124.246948,251.787125 
	C1112.259644,263.214905 1097.517944,268.276093 1081.355835,269.561035 
	C1058.884888,271.347504 1037.806641,267.823730 1020.505310,251.871429 
	C1008.408936,240.718292 1002.050659,226.525330 999.518921,210.455887 
	C996.132080,188.959320 997.997681,168.149780 1009.358826,149.189026 
	C1024.028931,124.706078 1046.801147,115.426270 1074.448730,116.598343 
	C1092.916626,117.381241 1109.265137,123.458107 1122.037354,137.392532 
	C1131.919678,148.174103 1136.987183,161.166168 1139.047974,175.471146 
	C1139.309082,177.282852 1139.545532,179.098083 1139.831665,181.377533 
M1071.500000,177.858978 
	C1081.296631,177.858978 1091.093140,177.858978 1101.298950,177.858978 
	C1101.208374,166.286270 1097.123535,157.262299 1087.366821,151.624710 
	C1075.855713,144.973526 1064.092773,145.318985 1052.941284,152.565567 
	C1044.062622,158.335114 1039.627686,166.830948 1039.032715,177.858978 
	C1049.892334,177.858978 1060.196167,177.858978 1071.500000,177.858978 
z"/>
<path fill="#020202" opacity="1.000000" stroke="none" 
	d="
M566.135742,168.873657 
	C571.629761,187.877808 577.040649,206.484741 582.451538,225.091675 
	C582.985352,225.194839 583.519104,225.298004 584.052917,225.401184 
	C594.340759,189.964996 604.628601,154.528824 614.901062,119.145699 
	C629.514465,119.145699 643.663879,119.145699 658.528381,119.145699 
	C641.144409,168.879852 623.870300,218.299515 606.569946,267.794373 
	C591.055847,267.794373 575.747131,267.794373 560.079895,267.794373 
	C542.819824,218.429184 525.526428,168.968964 508.127167,119.205719 
	C522.894409,119.205719 537.178162,119.205719 551.654907,119.205719 
	C556.473450,135.695435 561.263062,152.085938 566.135742,168.873657 
z"/>
<path fill="#020202" opacity="1.000000" stroke="none" 
	d="
M213.240067,187.799057 
	C209.371338,179.480179 205.455109,171.592026 202.023117,163.498520 
	C201.176163,161.501144 201.184631,158.541016 202.013077,156.521042 
	C222.233841,107.217346 242.652817,57.994965 262.902740,8.703154 
	C264.352966,5.173014 265.985809,3.738701 270.062408,3.825866 
	C285.047760,4.146283 300.044067,3.954715 315.036255,3.955767 
	C316.636902,3.955879 318.237549,3.955782 320.436432,3.955782 
	C290.194794,77.151054 260.196686,149.756821 229.845322,223.217621 
	C224.051178,210.885315 218.711212,199.519669 213.240067,187.799057 
z"/>
<path fill="#FCFCFC" opacity="1.000000" stroke="none" 
	d="
M691.005859,180.157196 
	C700.967346,180.413315 710.520813,179.930771 719.872742,181.083694 
	C737.768250,183.289871 748.151672,200.460724 742.168884,217.015762 
	C738.710083,226.586960 730.858398,231.234253 721.500549,231.736542 
	C706.621704,232.535172 691.668518,231.949753 676.388733,231.949753 
	C676.388733,215.295578 676.388733,198.089828 676.388733,180.157181 
	C680.998840,180.157181 685.752808,180.157181 691.005859,180.157196 
z"/>
<path fill="#F9F9F9" opacity="1.000000" stroke="none" 
	d="
M1071.000000,177.858978 
	C1060.196167,177.858978 1049.892334,177.858978 1039.032715,177.858978 
	C1039.627686,166.830948 1044.062622,158.335114 1052.941284,152.565567 
	C1064.092773,145.318985 1075.855713,144.973526 1087.366821,151.624710 
	C1097.123535,157.262299 1101.208374,166.286270 1101.298950,177.858978 
	C1091.093140,177.858978 1081.296631,177.858978 1071.000000,177.858978 
z"/>
</svg>