<svg version="1.1" id="Layer_1" xmlns="http://www.w3.org/2000/svg" xmlns:xlink="http://www.w3.org/1999/xlink" x="0px" y="0px"
	 width="100%" viewBox="0 0 1143 322" enable-background="new 0 0 1143 322" xml:space="preserve">
<path fill="#1077F1" opacity="1.000000" stroke="none" 
	d="
M801.000000,323.000000 
	C534.436462,323.000000 267.872986,323.000000 1.000000,323.000000 
	C1.000000,217.644226 1.000000,112.288155 1.237859,6.723219 
	C10.059343,24.842392 18.646696,43.168686 27.225594,61.498936 
	C36.655785,81.648102 46.082645,101.798836 55.502388,121.952888 
	C61.620407,135.042709 67.770592,148.117813 73.817932,161.240280 
	C78.815781,172.085342 83.628586,183.015656 88.623299,193.862183 
	C95.219383,208.186249 101.857452,222.491867 108.644096,236.725983 
	C109.385689,238.281387 111.223969,239.313873 112.558784,240.606491 
	C112.563995,240.624069 112.525894,240.638092 112.420990,241.035522 
	C112.337662,242.258820 112.103638,243.201065 112.418816,243.893234 
	C117.953888,256.048981 123.531227,268.185669 129.150711,280.302734 
	C134.659729,292.181610 140.045135,304.124969 145.928543,315.816711 
	C147.038269,318.022003 150.209457,320.561462 152.466507,320.597107 
	C168.070740,320.843597 183.685944,320.534821 199.295197,320.263794 
	C207.332718,320.124268 207.811798,319.251434 204.444794,311.961609 
	C194.361160,290.129913 184.230316,268.320007 174.161743,246.481384 
	C170.275635,238.052505 166.556503,229.546661 162.672501,221.116806 
	C158.094498,211.180710 153.608093,201.194839 148.710052,191.416870 
	C146.180832,186.367798 142.846237,181.722153 139.787567,176.866211 
	C139.699615,176.838196 139.750549,176.660721 139.811676,176.221436 
	C138.713638,172.577209 137.746582,169.286514 136.361298,166.182480 
	C131.038727,154.256027 125.615433,142.374115 120.166527,130.504593 
	C114.287109,117.697296 108.433731,104.876350 102.370888,92.155769 
	C99.880974,86.931633 96.872948,81.954430 93.983215,76.528137 
	C90.566711,69.786873 87.267586,63.382378 83.995804,56.984482 
	C84.023155,56.991089 83.992729,57.038422 84.056602,56.765949 
	C84.125534,56.307049 84.130585,56.120617 84.365936,55.814877 
	C85.081673,55.518162 85.567116,55.340752 86.280800,55.288574 
	C87.327423,55.312805 88.145805,55.211803 89.435013,55.112324 
	C108.260811,55.110466 126.615761,55.107082 145.206360,55.243088 
	C146.301453,55.318169 147.160919,55.253857 148.340302,55.164253 
	C149.370758,54.745903 150.081314,54.352840 150.808670,53.929470 
	C150.825485,53.899162 150.886734,53.931644 151.228302,53.877640 
	C152.172256,52.952957 153.290466,52.088032 153.300262,51.210739 
	C153.467911,36.186905 153.548935,21.161217 153.450897,6.137224 
	C153.444046,5.085482 151.888474,4.043845 151.031311,3.011111 
	C151.009552,3.024712 150.997543,2.974479 151.007660,2.645481 
	C151.011856,1.877655 151.005920,1.438827 151.000000,1.000000 
	C188.355972,1.000000 225.711960,1.000000 263.415131,1.334885 
	C254.368149,24.331722 244.961655,46.988567 235.582977,69.656944 
	C224.278015,96.981262 213.191193,124.398636 201.555405,151.581146 
	C198.953934,157.658463 199.572433,162.534836 202.351669,168.093948 
	C206.947235,177.286041 210.974106,186.760941 215.331818,196.073975 
	C219.024445,203.965607 222.733231,211.854233 226.681107,219.618988 
	C227.829834,221.878342 230.242447,224.385330 232.072403,220.410919 
	C234.191833,215.807800 235.348801,210.761536 236.944672,205.931473 
	C236.965775,205.955292 236.903305,205.964828 237.231110,205.855026 
	C238.635696,204.122162 240.001740,202.620499 240.742264,200.856293 
	C245.495346,189.532532 250.000229,178.104050 254.798447,166.799896 
	C261.929993,149.998596 269.360352,133.323471 276.417542,116.491508 
	C279.940460,108.089005 282.739197,99.385010 286.176056,90.943832 
	C295.715485,67.514374 305.509094,44.188114 314.987274,20.734198 
	C317.177765,15.313775 318.509430,9.546285 320.178131,3.710274 
	C320.119965,3.482048 319.936432,3.048227 319.953125,2.707066 
	C319.979889,1.910603 319.989960,1.455302 320.000000,1.000000 
	C329.689301,1.000000 339.378632,1.000000 349.409668,1.238851 
	C349.506256,1.956830 349.261139,2.435957 348.758667,3.161973 
	C341.612305,20.027426 334.723297,36.645988 327.513763,54.037827 
	C336.143768,54.037827 343.577179,54.037827 351.882843,54.037827 
	C310.704529,142.384399 269.845123,230.046738 228.792694,318.123199 
	C230.337814,318.390900 231.123474,318.644867 231.909454,318.645874 
	C248.570938,318.667267 265.234222,318.767792 281.891174,318.491760 
	C283.551025,318.464264 285.901550,316.458679 286.700592,314.783844 
	C296.442078,294.365784 305.958344,273.840210 315.522705,253.337677 
	C342.879517,194.694489 370.257874,136.061325 397.573151,77.398781 
	C409.082611,52.680923 420.455139,27.899284 431.690338,2.921163 
	C430.660522,2.130456 429.830261,1.565228 429.000000,1.000000 
	C667.257385,1.000000 905.514832,1.000000 1143.886108,1.000000 
	C1143.886108,108.223099 1143.886108,215.446350 1143.886108,323.000000 
	C1037.977661,323.000000 931.954895,323.000000 825.483276,322.720459 
	C825.040222,322.068329 825.046021,321.695740 825.357788,321.221985 
	C826.091309,321.123383 826.518921,321.126007 827.280396,321.307312 
	C831.976196,322.170685 835.929138,321.545319 838.976929,317.973145 
	C839.000000,318.000000 838.952515,317.947174 839.285400,317.953552 
	C840.346375,317.514587 841.074463,317.069275 841.797974,316.661285 
	C841.793518,316.698639 841.726440,316.664459 842.070312,316.722839 
	C843.274658,316.166870 844.135254,315.552551 844.993164,314.969208 
	C844.990479,315.000214 844.933350,314.975464 845.316650,315.003418 
	C851.896118,313.370117 856.389954,309.816284 858.466187,303.546295 
	C858.479126,303.532349 858.494629,303.497681 858.828430,303.432739 
	C860.091797,301.885834 861.021301,300.403900 861.964355,298.951477 
	C861.977905,298.981018 861.914490,298.966980 862.250854,298.890106 
	C865.051880,294.802490 868.245911,291.062225 869.851562,286.732910 
	C875.904419,270.412750 881.551636,253.938477 887.123352,237.445084 
	C889.923340,229.156708 892.234436,220.703110 894.749451,212.288055 
	C894.732361,212.251907 894.802734,212.213928 895.072632,211.954880 
	C896.166443,210.074448 897.174805,208.519440 897.786072,206.821472 
	C904.087097,189.318420 910.301208,171.784119 916.594543,154.278275 
	C918.167847,149.901917 921.030640,149.036514 928.148499,149.989685 
	C932.588318,150.584229 932.083923,153.736404 932.087769,156.700745 
	C932.115112,177.816666 931.964294,198.934540 932.222656,220.047455 
	C932.301453,226.487595 932.970215,233.025040 934.323364,239.312485 
	C935.436401,244.484314 936.682983,250.102554 942.366943,253.083221 
	C942.793518,253.357605 942.923340,253.601868 943.026001,254.203979 
	C943.565002,254.889969 944.028809,255.272461 944.435791,255.648651 
	C944.378906,255.642349 944.397888,255.529419 944.444824,255.862061 
	C945.337463,256.798737 946.183228,257.402771 947.006592,258.015076 
	C946.984131,258.023376 946.985168,257.975464 947.114014,258.202759 
	C947.538757,258.604431 947.834656,258.778748 948.090515,258.950134 
	C948.050476,258.947235 948.057251,258.867279 948.146729,259.195557 
	C949.176147,260.009552 950.116150,260.495270 951.030823,260.995972 
	C951.005554,261.011017 950.996338,260.952911 951.112793,261.274414 
	C953.585693,263.069611 955.766479,265.190582 958.333862,265.887421 
	C964.405457,267.535309 970.614563,268.869141 976.852844,269.664764 
	C985.896545,270.818176 994.785522,269.497131 1003.424683,266.560852 
	C1006.619080,265.475067 1007.831970,263.657532 1006.911255,260.097900 
	C1005.042786,252.874496 1003.602722,245.541122 1001.932434,238.265396 
	C1000.452209,231.817505 999.687256,231.387985 993.479553,233.218704 
	C985.145691,235.676468 977.171204,230.348038 977.080566,221.673752 
	C976.847168,199.353638 976.995789,177.029709 976.923828,154.707520 
	C976.913025,151.364761 978.221436,149.817871 981.658386,149.888901 
	C987.153198,150.002502 992.657349,150.047440 998.146240,149.832520 
	C999.760803,149.769318 1001.337097,148.730286 1002.964722,148.037994 
	C1002.998535,147.937500 1003.208435,147.907425 1003.525085,147.733734 
	C1004.111572,147.147888 1004.611694,146.738907 1004.617432,146.323120 
	C1004.738708,137.532104 1004.904175,128.739456 1004.829224,119.949112 
	C1004.801147,116.658012 1002.198242,116.082817 999.512390,116.066505 
	C993.867493,116.032227 988.218811,115.915154 982.578369,116.072060 
	C978.567505,116.183640 976.834229,114.590813 976.915649,110.507355 
	C977.064453,103.038872 977.063904,95.562057 976.866394,88.095581 
	C976.813477,86.095268 975.823059,84.119751 975.154053,82.121735 
	C975.045044,82.110626 974.942078,81.917206 974.768494,81.587570 
	C973.707458,80.893280 972.822083,80.217285 971.932190,80.211227 
	C960.709900,80.134743 949.486450,80.106911 938.264954,80.225014 
	C937.150452,80.236748 936.046875,81.289307 934.897949,81.919540 
	C934.857605,81.980293 934.736267,81.899391 934.411377,81.989258 
	C933.541138,83.685158 932.537598,85.289169 932.530518,86.897575 
	C932.501160,93.537979 932.867859,100.179092 932.911804,106.821121 
	C932.968201,115.340271 932.224854,116.035805 923.937317,116.036850 
	C911.937927,116.038361 899.938599,116.027168 887.939209,116.018333 
	C885.150574,116.016281 882.803406,116.269257 881.822815,119.729721 
	C878.786438,130.445251 875.312561,141.037140 872.297729,151.758362 
	C866.350098,172.909271 860.604736,194.117020 854.746094,215.293076 
	C854.329224,216.799789 853.670471,218.239578 853.124207,219.710495 
	C852.688110,219.755386 852.252075,219.800262 851.816040,219.845154 
	C851.160156,218.533508 850.300049,217.282410 849.889709,215.897980 
	C848.944336,212.708191 848.294861,209.431763 847.389893,206.228760 
	C839.786804,179.318802 832.189880,152.406921 824.470459,125.530289 
	C823.716309,122.904556 822.150146,120.512047 820.986450,118.013763 
	C821.012024,118.016228 820.976685,118.053574 820.837891,117.687103 
	C818.845276,116.890945 816.996094,116.115761 815.136658,116.090050 
	C806.031433,115.964149 796.923462,116.044571 787.816467,116.038910 
	C780.385864,116.034294 780.831299,115.952904 779.797607,108.756622 
	C778.979065,103.058083 778.208008,96.935257 772.852417,93.096260 
	C772.887268,93.097145 772.871155,93.164955 772.884521,92.789597 
	C768.076660,81.705711 759.462280,75.864166 748.242432,73.291367 
	C748.161499,73.320869 748.097412,73.160851 747.884888,72.863571 
	C739.116821,67.257881 729.238708,66.570335 719.804688,66.332245 
	C693.347839,65.664558 666.863281,66.058144 640.390137,66.158150 
	C638.589966,66.164940 636.793762,67.208519 634.881104,67.874359 
	C634.766602,67.978798 634.456909,67.963646 634.166016,68.076660 
	C633.408264,69.667557 632.555359,71.141296 632.539429,72.623993 
	C632.458069,80.234886 632.910583,87.863243 632.549133,95.455627 
	C632.263428,101.458023 633.629822,103.466881 639.481689,103.427605 
	C661.931824,103.276955 684.382080,103.147522 706.832336,103.016342 
	C713.787720,102.975708 720.373596,104.333244 726.266296,108.245827 
	C728.580933,109.782684 730.883667,111.337502 733.156616,112.887527 
	C733.121399,112.890923 733.137878,112.822174 733.114746,113.230759 
	C733.398193,115.072517 733.452026,116.623024 734.054077,117.918922 
	C736.937866,124.127380 735.857727,130.033417 733.104309,135.929947 
	C732.444336,137.343292 732.191040,138.946518 731.741333,140.577911 
	C731.731873,140.693420 731.512939,140.769440 731.155762,140.686676 
	C729.748352,141.901276 728.698181,143.198608 727.633545,144.570892 
	C727.619141,144.645844 727.467529,144.628098 727.210449,144.656158 
	C726.700928,144.907028 726.448486,145.129837 726.204102,145.317200 
	C726.212280,145.281723 726.281616,145.304077 725.889648,145.256897 
	C720.943481,146.453873 716.377441,147.656952 711.842346,148.967346 
	C710.492004,149.357529 709.228577,150.048767 707.570068,150.676086 
	C706.494690,150.700516 705.774597,150.650955 704.824951,150.313019 
	C697.354675,149.716980 690.116028,149.261047 682.872437,149.164062 
	C679.244019,149.115494 677.777100,147.712784 677.851074,144.115555 
	C677.987671,137.476669 677.984619,130.832565 677.888062,124.192825 
	C677.861755,122.384506 677.293945,120.584053 676.974670,118.779991 
	C676.418274,118.685104 675.861877,118.590218 675.305420,118.495323 
	C674.424866,120.620712 673.544312,122.746094 672.436890,125.126709 
	C669.041809,133.948730 665.750854,142.473053 662.764404,151.102737 
	C661.532898,154.661346 660.955505,158.446335 660.064636,162.086212 
	C660.048706,162.044067 660.133301,162.013000 659.828857,162.198578 
	C658.061523,166.981583 656.598694,171.579010 655.115845,176.120148 
	C655.095825,176.063873 655.208923,176.025253 654.924011,176.246567 
	C653.475220,180.198120 652.311340,183.928345 651.188110,187.702850 
	C651.228821,187.747131 651.142273,187.830612 650.836548,188.059723 
	C650.089355,189.935242 649.647827,191.581665 649.181274,193.168060 
	C649.156189,193.108047 649.277161,193.060150 648.992249,193.289139 
	C647.858093,196.397110 647.008789,199.276108 646.122314,202.121490 
	C646.085083,202.087875 646.183289,202.108368 645.870361,202.268326 
	C643.746460,208.000916 641.935425,213.573563 640.109314,219.115143 
	C640.094177,219.084091 640.162354,219.072952 639.847900,219.262360 
	C639.033081,221.327148 638.532776,223.202545 638.017334,225.040207 
	C638.002197,225.002472 638.077759,224.972427 637.835693,225.228302 
	C637.439514,226.158844 637.285400,226.833511 637.167419,227.642212 
	C637.203552,227.776230 637.010620,227.975830 636.721436,228.176483 
	C635.148010,232.566544 633.242615,236.681412 632.728516,240.963318 
	C632.001587,247.018387 632.149902,253.199371 632.253174,259.320984 
	C632.285461,261.237183 633.379883,263.135437 634.125977,265.241150 
	C634.487000,265.677429 634.739136,265.878082 635.221863,266.278687 
	C639.168640,266.729645 642.913452,267.122437 646.658997,267.129852 
	C671.986450,267.179810 697.314270,267.190277 722.641418,267.081879 
	C725.344910,267.070312 728.044678,266.210602 731.149170,265.569275 
	C732.716736,265.339294 733.881409,265.284393 735.368896,265.396423 
	C739.441895,264.629425 743.192139,263.695496 747.002258,262.672363 
	C747.062195,262.583130 747.244080,262.697693 747.587891,262.712585 
	C748.524719,262.444427 749.117798,262.161407 749.975830,261.627228 
	C770.213379,254.046082 783.020691,240.732040 786.625610,219.119553 
	C790.956787,193.153351 775.428528,169.501801 750.024658,163.965027 
	C748.556824,163.645126 747.275085,162.471451 745.499756,161.464218 
	C771.116455,148.648941 773.281006,146.295273 779.509766,124.897079 
	C779.810364,125.395836 780.137207,125.775856 780.291077,126.216316 
	C796.620789,172.955048 812.981995,219.682877 829.217163,266.454437 
	C832.461243,275.799988 823.227844,288.904449 813.205078,288.991516 
	C808.130554,289.035645 803.044800,287.795563 797.623657,287.193970 
	C796.777283,287.652344 795.972595,287.957520 795.809875,288.467529 
	C793.221680,296.578888 790.600464,304.684052 788.294922,312.877319 
	C787.869568,314.389130 788.797363,316.281677 789.069214,317.996460 
	C789.037903,317.994446 789.064392,317.937531 789.192688,318.265320 
	C793.213989,320.062073 797.106995,321.531036 801.000000,323.000000 
M1118.292847,132.090439 
	C1118.009521,131.925491 1117.726074,131.760544 1118.010132,131.061111 
	C1117.822266,131.241714 1117.634277,131.422318 1117.291626,131.015961 
	C1116.808105,130.701813 1116.324707,130.387665 1115.930420,130.069946 
	C1115.930420,130.069946 1115.931152,130.159225 1115.814575,129.458603 
	C1114.511475,128.657074 1113.208252,127.855553 1111.976807,127.026291 
	C1111.976807,127.026291 1112.003662,127.098419 1111.643433,126.625473 
	C1111.108643,126.397606 1110.573730,126.169731 1110.020752,125.992027 
	C1110.020752,125.992027 1110.056885,125.949814 1109.884155,125.281128 
	C1108.948364,124.382912 1108.164062,123.174149 1107.054199,122.632668 
	C1087.894409,113.285141 1067.953857,111.346031 1047.418335,116.996895 
	C1043.763550,118.002594 1040.484985,120.375038 1037.044189,122.047180 
	C1037.044189,122.047180 1037.111938,122.065758 1036.327881,122.006958 
	C1034.045898,123.541794 1031.763794,125.076630 1029.043213,126.057083 
	C1029.188354,126.240440 1029.333374,126.423805 1028.829590,126.539444 
	C1028.242188,127.083611 1027.654785,127.627785 1027.084717,128.083344 
	C1027.084717,128.083344 1027.172607,128.103882 1026.432983,128.136551 
	C1023.478394,129.226959 1020.182556,129.947250 1019.997009,133.995789 
	C1019.997009,133.995789 1020.059814,133.996201 1019.589233,134.221405 
	C1019.391418,134.501495 1019.193665,134.781586 1018.996765,134.995544 
	C1018.996765,134.995544 1019.062195,135.004913 1018.447388,135.150253 
	C1017.970337,135.793045 1017.493286,136.435837 1017.008240,137.011963 
	C1017.008240,137.011963 1017.075378,137.013718 1016.383179,137.142212 
	C1015.255859,138.777939 1014.128540,140.413681 1012.984314,141.993378 
	C1012.984314,141.993378 1013.042786,141.993073 1012.368469,142.138519 
	C1009.242188,147.310349 1005.247070,152.154648 1003.151062,157.714859 
	C996.599304,175.094879 994.321228,193.107895 998.513000,211.437607 
	C999.806885,217.095444 1002.438110,222.447403 1004.848389,228.597214 
	C1004.884460,228.849777 1004.920593,229.102341 1004.904297,230.086227 
	C1006.411133,232.643661 1007.917969,235.201096 1009.341797,237.747070 
	C1009.341797,237.747070 1009.365356,237.666656 1009.254333,238.382050 
	C1009.968750,239.157883 1010.683167,239.933701 1011.318665,240.714294 
	C1011.318665,240.714294 1011.326294,240.635620 1011.284668,241.383438 
	C1013.265137,243.594208 1015.245605,245.804962 1017.583862,248.141937 
	C1017.806458,248.295990 1017.933655,248.507431 1018.002014,249.536026 
	C1018.818420,253.291443 1021.471558,254.716537 1024.984131,255.023071 
	C1024.984131,255.023071 1024.962891,255.028351 1025.202637,255.482101 
	C1025.495972,255.643707 1025.789185,255.805313 1026.017212,255.974533 
	C1026.017212,255.974533 1026.034058,255.910919 1026.213257,256.565063 
	C1027.178833,257.022583 1028.144409,257.480072 1029.042969,257.956421 
	C1029.042969,257.956421 1029.033569,257.887482 1029.213989,258.554718 
	C1032.915649,260.236359 1036.617310,261.918030 1040.228394,263.665955 
	C1040.228394,263.665955 1040.257446,263.557587 1040.580566,264.206177 
	C1042.815186,265.223053 1044.954712,266.649872 1047.299194,267.192749 
	C1068.338501,272.064972 1089.156738,271.855469 1109.218140,263.064423 
	C1113.219971,261.310791 1116.398926,257.679108 1119.983643,254.979294 
	C1119.983643,254.979294 1119.919922,254.948074 1120.648071,254.981064 
	C1125.291138,253.033905 1128.840698,250.084106 1129.935669,244.938156 
	C1129.935669,244.938156 1129.865112,244.947067 1130.570068,244.829071 
	C1131.950073,242.331680 1133.330078,239.834274 1134.673462,237.139694 
	C1134.673462,237.139694 1134.855713,237.056091 1135.527832,236.812317 
	C1137.071411,233.252548 1138.785156,229.754349 1140.103882,226.113113 
	C1141.117798,223.313965 1139.431030,222.209061 1136.786255,222.030273 
	C1127.202026,221.382462 1117.629639,220.473221 1108.035767,220.077667 
	C1099.228394,219.714569 1097.563599,221.220886 1094.747925,230.478378 
	C1094.582031,230.728165 1094.350952,230.876450 1093.292603,230.956223 
	C1086.509888,234.153778 1079.707031,237.294250 1071.875854,236.066879 
	C1066.014404,235.148239 1060.160522,234.180969 1054.182007,233.268127 
	C1054.182007,233.268127 1054.138672,233.150269 1053.892456,232.490402 
	C1052.923096,231.984299 1051.953613,231.478180 1051.024536,230.963104 
	C1051.024536,230.963104 1051.030396,231.004013 1050.771973,230.552765 
	C1050.479126,230.376419 1050.186157,230.200089 1049.982056,230.016983 
	C1049.982056,230.016983 1049.988037,230.105713 1049.743042,229.631241 
	C1049.457275,229.426178 1049.171631,229.221130 1048.961792,229.033417 
	C1048.961792,229.033417 1048.942993,229.109009 1048.954346,228.369278 
	C1048.285522,227.056900 1047.550537,225.773590 1046.960205,224.426819 
	C1044.977051,219.902618 1042.422607,215.509445 1041.255493,210.777847 
	C1039.876831,205.188507 1041.293335,203.987854 1047.033813,203.958908 
	C1055.531860,203.916077 1064.030151,203.936035 1072.528320,203.935638 
	C1093.357300,203.934677 1114.186157,203.914581 1135.015137,203.959808 
	C1138.719482,203.967850 1141.749756,203.376587 1141.902710,198.774475 
	C1142.472046,181.634247 1140.833374,164.897491 1132.634399,149.423492 
	C1131.753906,147.761887 1130.210083,146.451813 1129.028442,144.986725 
	C1129.028442,144.986725 1129.007446,145.037552 1129.057007,144.276108 
	C1127.621704,139.786789 1125.736206,135.689835 1120.594116,134.443207 
	C1120.594116,134.443207 1120.626709,134.517639 1120.419556,133.995255 
	C1120.120850,133.782333 1119.822021,133.569427 1119.662354,133.348572 
	C1119.662354,133.348572 1119.656128,133.487656 1119.405151,133.014771 
	C1119.089355,132.862946 1118.773682,132.711121 1119.008179,132.065735 
	C1118.825684,132.232727 1118.643066,132.399719 1118.292847,132.090439 
M630.705566,198.839417 
	C630.705566,198.839417 630.532532,198.896057 631.165649,198.467392 
	C631.699280,196.566498 632.232971,194.665604 632.806396,192.868073 
	C632.806396,192.868073 632.702026,192.905151 633.276367,192.459122 
	C634.120117,189.591751 634.963806,186.724380 635.976807,183.932785 
	C635.976807,183.932785 635.815735,183.838333 636.438110,183.529526 
	C638.933777,175.988297 641.429382,168.447052 643.967590,160.960632 
	C643.967590,160.960632 643.898315,160.957077 644.503662,160.589020 
	C646.352600,155.895370 648.386292,151.263748 649.989014,146.487488 
	C651.165649,142.980942 651.777405,139.284866 652.679077,135.809204 
	C652.679077,135.809204 652.541931,135.842789 653.176697,135.460922 
	C654.073853,132.580124 654.971008,129.699326 655.911133,126.935577 
	C655.911133,126.935577 655.793640,126.977211 656.368286,126.565514 
	C657.183350,125.127426 658.140137,123.749992 658.786072,122.239563 
	C660.523193,118.177696 659.345093,116.175507 654.894836,116.134552 
	C642.765869,116.022888 630.632202,115.977768 618.508179,116.250420 
	C616.766296,116.289597 613.962402,117.897514 613.527954,119.343628 
	C610.772949,128.513504 608.546326,137.842117 606.011658,147.029388 
	C606.011658,147.029388 606.155518,147.099808 605.597900,147.545792 
	C604.687439,149.990616 603.552917,152.377991 602.908203,154.891006 
	C600.920105,162.639908 599.119080,170.436783 597.210205,178.141800 
	C597.210205,178.141800 597.284729,178.109406 596.757568,178.596725 
	C595.576416,182.958542 594.395203,187.320358 593.334595,191.855103 
	C593.334595,191.855103 593.164490,191.979599 592.575623,192.408081 
	C590.145996,199.948364 587.729858,207.493027 585.274658,215.024979 
	C584.814514,216.436462 584.198120,217.797012 583.434448,219.738937 
	C581.554321,215.918152 580.122131,213.007706 578.788391,210.136169 
	C578.788391,210.136169 578.746643,210.233475 578.900391,209.399536 
	C577.871582,206.287262 576.842773,203.174988 575.888184,200.087448 
	C575.888184,200.087448 575.861816,200.161118 575.957581,199.328400 
	C574.136230,193.595337 572.314880,187.862259 570.665955,182.187149 
	C570.665955,182.187149 570.603455,182.357986 570.693115,181.718262 
	C570.424133,181.161026 570.155212,180.603790 569.658081,179.824982 
	C569.658081,179.824982 569.665222,179.506989 569.833801,178.622681 
	C568.515015,174.373962 567.196228,170.125229 565.732178,165.812256 
	C565.732178,165.812256 565.792175,165.665131 565.893677,164.755966 
	C563.478455,156.854736 561.063171,148.953506 558.804810,141.112503 
	C558.804810,141.112503 558.742065,141.268463 558.901184,140.412735 
	C556.924438,132.979156 554.978760,125.536873 552.904602,118.130600 
	C552.758118,117.607666 551.663879,117.350143 550.073547,116.903557 
	C537.431641,116.907646 524.789734,116.911743 511.841431,116.762611 
	C511.516235,116.814789 511.191040,116.866966 510.354370,117.025696 
	C509.964508,117.344887 509.574646,117.664078 508.767609,118.460480 
	C511.255798,126.144341 513.655273,133.858307 516.250427,141.505875 
	C521.825989,157.936401 527.502502,174.332687 533.138428,191.376450 
	C533.443787,191.912811 533.749146,192.449173 533.996277,192.974854 
	C533.996277,192.974854 534.035095,192.930145 533.988525,193.730591 
	C534.837219,195.725449 535.685913,197.720306 536.458374,199.718491 
	C536.458374,199.718491 536.477478,199.644516 536.266357,200.404892 
	C536.894958,201.932358 537.523499,203.459824 538.052490,204.960541 
	C538.052490,204.960541 538.080078,204.861191 538.018127,205.687210 
	C540.370728,212.127319 542.723389,218.567429 545.009338,224.982834 
	C545.009338,224.982834 545.034363,224.916321 544.986755,225.732407 
	C548.101501,235.350464 551.112183,245.004242 554.394287,254.564850 
	C555.379883,257.435699 557.121826,260.046875 558.410095,262.751160 
	C558.410095,262.751160 558.441833,262.645630 558.259705,263.293304 
	C558.712097,264.193604 559.164490,265.093903 559.889526,266.389984 
	C559.889526,266.389984 560.049255,266.843262 560.700134,267.352905 
	C575.332214,267.535126 589.964233,267.786407 604.596252,267.782166 
	C605.916992,267.781769 608.020508,266.400299 608.428345,265.205536 
	C610.781433,258.312012 612.733765,251.281647 614.782959,244.238510 
	C614.782959,244.238510 614.840271,244.196991 615.389282,243.700668 
	C616.864136,239.082428 618.338989,234.464188 620.000000,229.998779 
	C620.000000,229.998779 619.813843,229.844604 620.432617,229.529572 
	C622.562927,222.961761 624.693176,216.393951 626.849792,209.901321 
	C626.849792,209.901321 626.773865,209.925491 627.340698,209.480286 
	C628.097107,206.888016 628.853455,204.295746 629.625732,201.787323 
	C629.625732,201.787323 629.541077,201.797913 630.105286,201.359787 
	C630.285156,200.462448 630.465027,199.565125 630.705566,198.839417 
z"/>
<path fill="#307DD6" opacity="1.000000" stroke="none" 
	d="
M112.553574,240.588913 
	C111.223969,239.313873 109.385689,238.281387 108.644096,236.725983 
	C101.857452,222.491867 95.219383,208.186249 88.623299,193.862183 
	C83.628586,183.015656 78.815781,172.085342 73.817932,161.240280 
	C67.770592,148.117813 61.620407,135.042709 55.502388,121.952888 
	C46.082645,101.798836 36.655785,81.648102 27.225594,61.498936 
	C18.646696,43.168686 10.059343,24.842392 1.237859,6.257178 
	C1.000000,4.338050 1.000000,2.676101 0.999999,1.007076 
	C50.687561,1.000000 100.375122,1.000000 150.531342,1.000000 
	C151.005920,1.438827 151.011856,1.877655 150.540741,2.678041 
	C101.016907,3.039600 51.970104,3.039600 2.250367,3.039600 
	C3.344259,5.525304 4.038420,7.185678 4.797607,8.815767 
	C29.388363,61.615791 54.003113,114.404655 78.573601,167.214111 
	C89.943787,191.652130 101.229538,216.129425 112.553574,240.588913 
z"/>
<path fill="#327DD4" opacity="1.000000" stroke="none" 
	d="
M319.531372,1.000000 
	C319.989960,1.455302 319.979889,1.910603 319.490479,2.722073 
	C302.865845,3.066783 286.718475,3.194689 270.576843,2.946255 
	C266.521851,2.883845 264.470093,4.009652 262.876068,7.900008 
	C242.716827,57.100834 222.336319,106.211006 202.188583,155.416504 
	C201.310959,157.559860 201.371674,160.727783 202.292068,162.858170 
	C206.705719,173.074020 211.543274,183.107590 216.274368,193.185165 
	C220.599594,202.398270 224.981308,211.584839 229.702011,221.551392 
	C232.388245,215.732361 234.655914,210.820007 236.923584,205.907654 
	C235.348801,210.761536 234.191833,215.807800 232.072403,220.410919 
	C230.242447,224.385330 227.829834,221.878342 226.681107,219.618988 
	C222.733231,211.854233 219.024445,203.965607 215.331818,196.073975 
	C210.974106,186.760941 206.947235,177.286041 202.351669,168.093948 
	C199.572433,162.534836 198.953934,157.658463 201.555405,151.581146 
	C213.191193,124.398636 224.278015,96.981262 235.582977,69.656944 
	C244.961655,46.988567 254.368149,24.331722 263.881165,1.334885 
	C282.354218,1.000000 300.708466,1.000000 319.531372,1.000000 
z"/>
<path fill="#2B79D4" opacity="1.000000" stroke="none" 
	d="
M428.531342,1.000000 
	C429.830261,1.565228 430.660522,2.130456 431.230865,2.895940 
	C403.652649,3.035822 376.334320,2.975448 349.016052,2.915079 
	C349.261139,2.435957 349.506256,1.956830 349.875671,1.238851 
	C376.020905,1.000000 402.041779,1.000000 428.531342,1.000000 
z"/>
<path fill="#4084CF" opacity="1.000000" stroke="none" 
	d="
M825.051819,321.323181 
	C825.046021,321.695740 825.040222,322.068329 825.017212,322.720459 
	C817.312439,323.000000 809.624817,323.000000 801.468628,323.000000 
	C797.106995,321.531036 793.213989,320.062073 789.586182,318.294617 
	C801.321289,321.893585 813.145081,322.046997 825.051819,321.323181 
z"/>
<path fill="#FAFEFE" opacity="1.000000" stroke="none" 
	d="
M825.357788,321.221985 
	C813.145081,322.046997 801.321289,321.893585 789.457886,317.966858 
	C789.064392,317.937531 789.037903,317.994446 789.049438,317.603943 
	C792.028748,307.187622 794.996399,297.161835 797.964111,287.136078 
	C803.044800,287.795563 808.130554,289.035645 813.205078,288.991516 
	C823.227844,288.904449 832.461243,275.799988 829.217163,266.454437 
	C812.981995,219.682877 796.620789,172.955048 780.291077,126.216316 
	C780.137207,125.775856 779.810364,125.395836 779.509766,124.897079 
	C773.281006,146.295273 771.116455,148.648941 745.499756,161.464218 
	C747.275085,162.471451 748.556824,163.645126 750.024658,163.965027 
	C775.428528,169.501801 790.956787,193.153351 786.625610,219.119553 
	C783.020691,240.732040 770.213379,254.046082 749.644775,261.622253 
	C748.447205,262.144836 747.845642,262.421265 747.244080,262.697693 
	C747.244080,262.697693 747.062195,262.583130 746.594604,262.665100 
	C742.433289,263.574554 738.739685,264.402008 735.046021,265.229462 
	C733.881409,265.284393 732.716736,265.339294 730.777100,265.487274 
	C725.338318,265.697937 720.674866,265.906586 716.010803,265.918182 
	C689.014038,265.985291 662.017090,266.005890 635.020203,266.042267 
	C634.739136,265.878082 634.487000,265.677429 634.217529,264.775574 
	C634.718323,252.034439 632.544861,239.744278 637.010620,227.975830 
	C637.010620,227.975830 637.203552,227.776230 637.433167,227.403915 
	C637.801086,226.345215 637.939453,225.658813 638.077759,224.972427 
	C638.077759,224.972427 638.002197,225.002472 638.300537,224.817535 
	C639.120056,222.779388 639.641235,220.926178 640.162354,219.072968 
	C640.162354,219.072952 640.094177,219.084091 640.374390,218.872284 
	C642.497559,213.143097 644.340393,207.625717 646.183228,202.108368 
	C646.183289,202.108368 646.085083,202.087875 646.375122,201.868286 
	C647.535828,198.785843 648.406494,195.922989 649.277161,193.060150 
	C649.277161,193.060150 649.156189,193.108047 649.431885,192.909103 
	C650.185791,191.083649 650.664062,189.457123 651.142273,187.830612 
	C651.142273,187.830612 651.228821,187.747131 651.464600,187.423889 
	C652.869934,183.408844 654.039429,179.717056 655.208923,176.025253 
	C655.208923,176.025253 655.095825,176.063873 655.401855,175.895386 
	C657.182983,171.155609 658.658142,166.584305 660.133301,162.013000 
	C660.133301,162.013000 660.048706,162.044067 660.337524,161.844757 
	C664.743408,149.747223 668.860535,137.849014 673.156494,125.671326 
	C673.852783,124.466866 674.370239,123.541901 675.563293,121.409264 
	C675.725769,124.502686 675.887329,126.243782 675.896118,127.985641 
	C675.928589,134.435257 675.969360,140.885925 675.881653,147.334488 
	C675.848206,149.795502 676.640625,150.967712 679.285583,150.912735 
	C687.873657,150.734222 696.464661,150.694519 705.054504,150.601379 
	C705.774597,150.650955 706.494690,150.700516 707.986938,150.785858 
	C715.068359,150.469879 721.207275,149.577484 726.281616,145.304077 
	C726.281616,145.304077 726.212280,145.281723 726.462646,145.292969 
	C726.964539,145.078827 727.216003,144.853455 727.467529,144.628082 
	C727.467529,144.628098 727.619141,144.645844 727.910095,144.438187 
	C729.305054,143.076828 730.408997,141.923141 731.512939,140.769440 
	C731.512939,140.769440 731.731873,140.693420 732.019897,140.402405 
	C738.666809,131.451797 738.982544,121.070099 733.137878,112.822174 
	C733.137878,112.822174 733.121399,112.890923 733.080933,112.550560 
	C727.361145,104.298119 719.150574,101.753166 709.973694,101.714714 
	C686.530640,101.616486 663.086304,101.617477 639.643799,101.772644 
	C635.567322,101.799622 634.059448,100.575790 634.194580,96.384560 
	C634.499878,86.917946 634.395020,77.438103 634.456909,67.963646 
	C634.456909,67.963646 634.766602,67.978798 635.338379,67.963135 
	C656.707275,67.964851 677.504944,68.086655 698.301208,67.966759 
	C715.105957,67.869881 731.906860,67.502808 748.097412,73.160851 
	C748.097412,73.160851 748.161499,73.320869 748.488831,73.569641 
	C758.696899,77.951569 766.673767,84.451996 772.871155,93.164955 
	C772.871155,93.164955 772.887268,93.097145 772.909302,93.462250 
	C775.471558,101.421379 778.011719,109.015404 780.765930,117.249443 
	C790.588074,117.249443 801.374817,117.193321 812.160217,117.286293 
	C815.101013,117.311638 818.037964,117.785530 820.976685,118.053574 
	C820.976685,118.053574 821.012024,118.016228 820.980591,118.409195 
	C831.054810,154.671097 841.160400,190.540054 851.266052,226.409012 
	C851.782898,226.402283 852.299744,226.395538 852.816589,226.388809 
	C853.322021,224.942276 853.901672,223.516907 854.322021,222.046051 
	C863.952515,188.347076 873.594788,154.651367 883.126587,120.924446 
	C883.887390,118.232529 885.012573,117.121117 887.905029,117.214386 
	C894.057068,117.412766 900.220459,117.253708 906.379211,117.250549 
	C915.505066,117.245872 924.630920,117.249329 934.284241,117.249329 
	C934.284241,114.241409 934.253052,111.773293 934.289978,109.306190 
	C934.426636,100.170410 934.585571,91.034966 934.736267,81.899391 
	C934.736267,81.899391 934.857605,81.980293 935.366211,81.983780 
	C948.897217,81.963905 961.919617,81.940552 974.942078,81.917206 
	C974.942078,81.917206 975.045044,82.110626 975.150818,82.570236 
	C975.256592,94.287422 975.256592,105.544998 975.256592,117.420135 
	C984.945801,117.420135 993.843262,117.420135 1003.208435,117.420135 
	C1003.208435,127.998131 1003.208435,137.952774 1003.208435,147.907425 
	C1003.208435,147.907425 1002.998535,147.937500 1002.506958,148.005646 
	C994.518188,148.083557 987.019226,148.189148 979.524536,148.055023 
	C976.607239,148.002792 975.291077,148.864075 975.301208,151.978577 
	C975.376221,175.136230 975.176025,198.296097 975.430298,221.451218 
	C975.538635,231.318451 980.460388,235.442352 990.492126,235.057602 
	C993.410950,234.945648 996.313232,234.402939 999.600098,234.012939 
	C1001.757874,244.276260 1003.824036,254.103775 1005.948792,264.209747 
	C986.781006,269.441284 968.604004,270.155090 950.996338,260.952911 
	C950.996338,260.952911 951.005554,261.011017 950.867859,260.728241 
	C949.839172,259.919403 948.948242,259.393341 948.057251,258.867279 
	C948.057251,258.867279 948.050476,258.947235 948.005615,258.685059 
	C947.635498,258.273743 947.310364,258.124603 946.985168,257.975464 
	C946.985168,257.975464 946.984131,258.023376 946.888000,257.728638 
	C945.993896,256.799072 945.195862,256.164246 944.397888,255.529419 
	C944.397888,255.529419 944.378906,255.642349 944.348755,255.351562 
	C943.862610,254.674026 943.406677,254.287277 942.950806,253.900513 
	C942.923340,253.601868 942.793518,253.357605 942.268127,252.735641 
	C936.251892,244.445251 934.271240,235.510086 934.281616,225.961823 
	C934.307495,202.155762 934.283081,178.349655 934.278992,154.543564 
	C934.278687,152.585052 934.278992,150.626556 934.278992,148.090576 
	C929.547791,148.090576 925.405457,148.341599 921.309387,148.014099 
	C917.798218,147.733353 916.271484,149.191422 915.226868,152.349411 
	C912.201660,161.495316 908.863220,170.537094 905.747803,179.653885 
	C902.045166,190.488693 898.446472,201.359009 894.802734,212.213928 
	C894.802734,212.213928 894.732361,212.251907 894.465210,212.549347 
	C892.853577,216.596237 891.559937,220.364868 890.156372,224.092087 
	C880.755493,249.055298 871.331177,274.009705 861.914490,298.966980 
	C861.914490,298.966980 861.977905,298.981018 861.678101,299.106659 
	C860.417053,300.654083 859.455811,302.075897 858.494629,303.497681 
	C858.494629,303.497681 858.479126,303.532349 858.175659,303.696320 
	C853.559204,307.565338 849.246277,311.270386 844.933350,314.975464 
	C844.933350,314.975464 844.990479,315.000214 844.678467,315.005096 
	C843.486511,315.561493 842.606445,316.112976 841.726440,316.664459 
	C841.726440,316.664459 841.793518,316.698639 841.468994,316.671265 
	C840.413818,317.078308 839.683167,317.512756 838.952515,317.947174 
	C838.952515,317.947174 839.000000,318.000000 838.588257,317.975891 
	C834.433167,319.010712 830.689819,320.069672 826.946533,321.128632 
	C826.518921,321.126007 826.091309,321.123383 825.357788,321.221985 
M715.902710,231.516037 
	C717.727051,231.338272 719.572144,231.278625 721.372375,230.963165 
	C731.502441,229.188049 739.753540,224.901596 742.855286,214.177444 
	C747.458252,198.262787 736.881348,181.758698 719.715149,180.117798 
	C705.681580,178.776337 691.447510,179.529999 677.302002,179.382751 
	C677.035461,179.379974 676.765320,179.724289 676.345825,180.009262 
	C676.345825,196.994080 676.345825,214.073105 676.345825,231.619415 
	C689.434021,231.619415 702.212036,231.619415 715.902710,231.516037 
z"/>
<path fill="#FBFEFE" opacity="1.000000" stroke="none" 
	d="
M112.558784,240.606491 
	C101.229538,216.129425 89.943787,191.652130 78.573601,167.214111 
	C54.003113,114.404655 29.388363,61.615791 4.797607,8.815767 
	C4.038420,7.185678 3.344259,5.525304 2.250367,3.039600 
	C51.970104,3.039600 101.016907,3.039600 150.530624,3.007040 
	C150.997543,2.974479 151.009552,3.024712 151.120926,3.471740 
	C151.117111,20.589725 151.001923,37.260685 150.886749,53.931644 
	C150.886734,53.931644 150.825485,53.899162 150.363617,53.883362 
	C148.076370,53.866112 146.250992,53.863659 144.425629,53.863369 
	C125.342155,53.860352 106.258385,53.815548 87.175850,53.948326 
	C85.883293,53.957321 82.933525,52.264557 83.316513,56.210381 
	C83.472893,56.730000 83.689156,56.931133 83.992729,57.038422 
	C83.992729,57.038422 84.023155,56.991089 84.001770,57.357918 
	C87.306755,64.796410 90.633118,71.868073 93.989258,79.305374 
	C102.061691,96.843262 110.071960,114.030777 118.156738,131.183167 
	C125.311584,146.362656 132.549377,161.503067 139.750549,176.660721 
	C139.750549,176.660721 139.699615,176.838196 139.814148,177.250320 
	C161.625992,224.326920 183.323334,270.991394 205.440186,318.558136 
	C202.729614,318.558136 200.953308,318.557709 199.176987,318.558197 
	C185.527893,318.562103 171.856415,318.102234 158.238876,318.759705 
	C151.088928,319.104950 147.878387,316.575256 145.021561,310.184357 
	C134.580627,286.827484 123.417175,263.793640 112.525894,240.638092 
	C112.525894,240.638092 112.563995,240.624069 112.558784,240.606491 
z"/>
<path fill="#FBFEFE" opacity="1.000000" stroke="none" 
	d="
M348.758667,3.161968 
	C376.334320,2.975448 403.652649,3.035822 431.430420,3.121419 
	C420.455139,27.899284 409.082611,52.680923 397.573151,77.398781 
	C370.257874,136.061325 342.879517,194.694489 315.522705,253.337677 
	C305.958344,273.840210 296.442078,294.365784 286.700592,314.783844 
	C285.901550,316.458679 283.551025,318.464264 281.891174,318.491760 
	C265.234222,318.767792 248.570938,318.667267 231.909454,318.645874 
	C231.123474,318.644867 230.337814,318.390900 228.792694,318.123199 
	C269.845123,230.046738 310.704529,142.384399 351.882843,54.037827 
	C343.577179,54.037827 336.143768,54.037827 327.513763,54.037827 
	C334.723297,36.645988 341.612305,20.027426 348.758667,3.161968 
z"/>
<path fill="#FAFEFE" opacity="1.000000" stroke="none" 
	d="
M1094.054810,230.923248 
	C1094.350952,230.876450 1094.582031,230.728165 1095.159912,230.159836 
	C1096.816772,228.294357 1098.571533,226.929306 1099.201660,225.163010 
	C1100.559692,221.356430 1103.096436,220.896515 1106.579224,221.273605 
	C1111.195312,221.773392 1115.856567,221.837692 1120.489990,222.198410 
	C1126.546509,222.669891 1132.594604,223.248230 1139.466064,223.852722 
	C1137.760864,228.736267 1136.308228,232.896194 1134.855713,237.056091 
	C1134.855713,237.056091 1134.673462,237.139694 1134.419678,237.468018 
	C1132.732300,240.179916 1131.298706,242.563477 1129.865112,244.947052 
	C1129.865112,244.947067 1129.935669,244.938156 1129.627197,245.056244 
	C1126.185913,248.432236 1123.052856,251.690155 1119.919922,254.948090 
	C1119.919922,254.948074 1119.983643,254.979294 1119.628662,255.024048 
	C1112.479492,258.427002 1105.974243,262.689117 1098.835938,264.969849 
	C1079.282593,271.217285 1059.640625,270.054901 1040.257446,263.557587 
	C1040.257446,263.557587 1040.228394,263.665955 1040.033203,263.392883 
	C1036.236572,261.375702 1032.635132,259.631592 1029.033569,257.887482 
	C1029.033569,257.887482 1029.042969,257.956421 1028.913574,257.672852 
	C1027.867432,256.896515 1026.950684,256.403717 1026.034058,255.910919 
	C1026.034058,255.910919 1026.017212,255.974533 1025.972900,255.708755 
	C1025.606689,255.304764 1025.284790,255.166550 1024.962891,255.028351 
	C1024.962891,255.028351 1024.984131,255.023071 1024.803223,254.755280 
	C1022.403320,252.583755 1020.184326,250.680023 1017.965332,248.776291 
	C1017.933655,248.507431 1017.806458,248.295990 1017.292114,247.745499 
	C1015.109070,245.111237 1013.217651,242.873428 1011.326294,240.635620 
	C1011.326294,240.635620 1011.318665,240.714294 1011.287354,240.405029 
	C1010.625854,239.286041 1009.995605,238.476334 1009.365356,237.666641 
	C1009.365356,237.666656 1009.341797,237.747070 1009.308838,237.397141 
	C1007.836182,234.483124 1006.396484,231.919022 1004.956726,229.354919 
	C1004.920593,229.102341 1004.884460,228.849777 1004.624512,227.925018 
	C1000.220764,216.630356 998.391113,205.545044 998.168823,194.195801 
	C997.798767,175.298767 1002.465576,157.792786 1013.042786,141.993073 
	C1013.042786,141.993073 1012.984314,141.993378 1013.285950,141.870941 
	C1014.750183,140.170258 1015.912781,138.591995 1017.075439,137.013733 
	C1017.075378,137.013718 1017.008240,137.011963 1017.297729,136.940750 
	C1018.078918,136.248001 1018.570557,135.626480 1019.062256,135.004929 
	C1019.062195,135.004913 1018.996765,134.995544 1019.266296,134.962311 
	C1019.710510,134.618103 1019.885132,134.307144 1020.059814,133.996201 
	C1020.059814,133.996201 1019.997009,133.995789 1020.320679,133.913284 
	C1022.820435,131.921814 1024.996582,130.012848 1027.172607,128.103882 
	C1027.172607,128.103882 1027.084717,128.083344 1027.375366,128.101837 
	C1028.270142,127.615936 1028.874268,127.111542 1029.478516,126.607155 
	C1029.333374,126.423805 1029.188354,126.240440 1029.598877,126.225281 
	C1032.473633,124.950912 1034.792847,123.508354 1037.111938,122.065781 
	C1037.111938,122.065758 1037.044189,122.047180 1037.418823,122.048294 
	C1043.312378,120.337219 1048.725952,118.048019 1054.369263,117.017380 
	C1073.912354,113.448357 1092.594238,116.118370 1110.056885,125.949814 
	C1110.056885,125.949814 1110.020752,125.992027 1110.209961,126.205688 
	C1110.933960,126.645706 1111.468872,126.872063 1112.003662,127.098419 
	C1112.003662,127.098419 1111.976807,127.026291 1112.071777,127.338547 
	C1113.421631,128.486938 1114.676392,129.323090 1115.931152,130.159241 
	C1115.931152,130.159225 1115.930420,130.069946 1115.980347,130.344116 
	C1116.502197,130.946533 1116.974243,131.274750 1117.446289,131.602951 
	C1117.634277,131.422318 1117.822266,131.241714 1117.830566,131.553558 
	C1117.853516,132.324478 1118.123413,132.498047 1118.460571,132.566727 
	C1118.643066,132.399719 1118.825684,132.232727 1118.864380,132.547470 
	C1119.032471,133.182022 1119.344238,133.334824 1119.656128,133.487640 
	C1119.656128,133.487656 1119.662354,133.348572 1119.692627,133.616760 
	C1120.024292,134.095840 1120.325439,134.306747 1120.626709,134.517639 
	C1120.626709,134.517639 1120.594116,134.443207 1120.714111,134.764877 
	C1123.558472,138.403549 1126.282959,141.720535 1129.007446,145.037537 
	C1129.007446,145.037552 1129.028442,144.986725 1129.044067,145.344757 
	C1139.249390,163.024841 1140.989014,181.913925 1139.675659,202.055511 
	C1106.081665,202.055511 1072.763184,202.055511 1038.932983,202.055511 
	C1039.039551,212.780746 1040.973145,222.028961 1048.942993,229.109009 
	C1048.942993,229.109009 1048.961792,229.033417 1048.989746,229.305328 
	C1049.341064,229.753403 1049.664551,229.929565 1049.988037,230.105713 
	C1049.988037,230.105713 1049.982056,230.016983 1050.023438,230.283112 
	C1050.386719,230.700836 1050.708618,230.852417 1051.030396,231.003998 
	C1051.030396,231.004013 1051.024536,230.963104 1051.160400,231.258728 
	C1052.243774,232.086319 1053.191162,232.618286 1054.138672,233.150269 
	C1054.138672,233.150269 1054.182007,233.268127 1054.474243,233.546997 
	C1067.156128,240.892761 1085.161621,239.562515 1094.054810,230.923248 
M1090.089722,152.354416 
	C1078.371948,144.268387 1066.115723,143.819336 1053.996704,150.862625 
	C1044.507202,156.377670 1039.752808,165.181549 1039.069946,176.580917 
	C1059.931885,176.580917 1080.292725,176.580917 1101.078125,176.580917 
	C1101.427490,166.730011 1098.009277,158.929047 1090.089722,152.354416 
z"/>
<path fill="#FAFDFE" opacity="1.000000" stroke="none" 
	d="
M569.665222,179.506989 
	C569.665222,179.506989 569.658081,179.824982 569.744019,180.250549 
	C570.087708,181.236725 570.345581,181.797363 570.603455,182.358002 
	C570.603455,182.357986 570.665955,182.187149 570.637024,182.573349 
	C572.359314,188.693405 574.110596,194.427261 575.861816,200.161118 
	C575.861816,200.161118 575.888184,200.087448 575.854858,200.469421 
	C576.796509,203.978775 577.771545,207.106125 578.746643,210.233475 
	C578.746643,210.233475 578.788391,210.136169 578.741760,210.527588 
	C579.946960,215.387375 581.198853,219.855743 582.450684,224.324112 
	C583.074585,224.310791 583.698547,224.297470 584.322449,224.284164 
	C587.269775,213.515976 590.217163,202.747787 593.164490,191.979599 
	C593.164490,191.979599 593.334595,191.855103 593.531738,191.467651 
	C594.914124,186.756592 596.099426,182.432999 597.284729,178.109406 
	C597.284729,178.109406 597.210205,178.141800 597.470093,177.901428 
	C600.538452,167.473969 603.346985,157.286880 606.155518,147.099792 
	C606.155518,147.099808 606.011658,147.029388 606.335754,146.814606 
	C609.018005,138.481339 611.489685,130.393204 613.675720,122.228607 
	C614.490479,119.185600 615.826782,117.932335 619.136658,118.044357 
	C626.605103,118.297127 634.088135,118.121780 641.565186,118.121132 
	C646.947998,118.120667 652.330811,118.121040 658.042725,118.121040 
	C657.167542,121.567055 656.480591,124.272133 655.793640,126.977211 
	C655.793640,126.977211 655.911133,126.935577 655.613403,127.112457 
	C654.391052,130.140488 653.466492,132.991638 652.541931,135.842789 
	C652.541931,135.842789 652.679077,135.809204 652.413574,136.006073 
	C649.398193,144.454315 646.648254,152.705704 643.898315,160.957092 
	C643.898315,160.957077 643.967590,160.960632 643.679016,161.170227 
	C640.865540,168.865997 638.340637,176.352158 635.815735,183.838333 
	C635.815735,183.838333 635.976807,183.932785 635.646240,184.149017 
	C634.444397,187.211899 633.573242,190.058517 632.702026,192.905151 
	C632.702026,192.905151 632.806396,192.868073 632.536316,193.074951 
	C631.688354,195.153229 631.110413,197.024643 630.532532,198.896057 
	C630.532532,198.896057 630.705566,198.839417 630.438293,199.001175 
	C629.961060,200.041260 629.751099,200.919586 629.541138,201.797913 
	C629.541077,201.797913 629.625732,201.787323 629.386841,202.011353 
	C628.356628,204.798752 627.565247,207.362122 626.773804,209.925476 
	C626.773865,209.925491 626.849792,209.901321 626.559204,210.093506 
	C624.117065,216.805344 621.965454,223.324966 619.813843,229.844604 
	C619.813843,229.844604 620.000000,229.998779 619.651978,230.168961 
	C617.816040,234.958435 616.328125,239.577713 614.840271,244.196991 
	C614.840271,244.196991 614.782959,244.238510 614.512817,244.533234 
	C612.137390,250.779709 609.862732,256.679047 607.999329,262.705566 
	C607.084656,265.663788 605.899109,267.006226 602.510864,266.954468 
	C588.359741,266.738281 574.203552,266.851044 560.049255,266.843262 
	C560.049255,266.843262 559.889526,266.389984 559.770142,265.890320 
	C559.247742,264.475647 558.844788,263.560638 558.441833,262.645630 
	C558.441833,262.645630 558.410095,262.751160 558.400574,262.374023 
	C553.938843,249.636673 549.486572,237.276505 545.034363,224.916321 
	C545.034363,224.916321 545.009338,224.982834 545.037354,224.599518 
	C542.736877,217.764526 540.408447,211.312866 538.080078,204.861191 
	C538.080078,204.861191 538.052490,204.960541 538.078491,204.616425 
	C537.562134,202.729706 537.019775,201.187103 536.477478,199.644516 
	C536.477478,199.644516 536.458374,199.718491 536.430786,199.351196 
	C535.613892,196.965973 534.824463,194.948059 534.035095,192.930145 
	C534.035095,192.930145 533.996277,192.974854 534.046021,192.657608 
	C533.776367,191.807907 533.457031,191.275452 533.137695,190.742981 
	C527.502502,174.332687 521.825989,157.936401 516.250427,141.505875 
	C513.655273,133.858307 511.255798,126.144341 509.422668,118.275848 
	C523.699524,118.055580 537.321289,118.019943 551.223389,118.235550 
	C553.916504,126.080681 556.329285,133.674561 558.742065,141.268463 
	C558.742065,141.268463 558.804810,141.112503 558.745850,141.500488 
	C561.055298,149.814026 563.423767,157.739578 565.792175,165.665131 
	C565.792175,165.665131 565.732178,165.812256 565.811707,166.258362 
	C567.149231,170.971970 568.407227,175.239471 569.665222,179.506989 
z"/>
<path fill="#FBFEFE" opacity="1.000000" stroke="none" 
	d="
M236.944687,205.931473 
	C234.655914,210.820007 232.388245,215.732361 229.702011,221.551392 
	C224.981308,211.584839 220.599594,202.398270 216.274368,193.185165 
	C211.543274,183.107590 206.705719,173.074020 202.292068,162.858170 
	C201.371674,160.727783 201.310959,157.559860 202.188583,155.416504 
	C222.336319,106.211006 242.716827,57.100834 262.876068,7.900008 
	C264.470093,4.009652 266.521851,2.883845 270.576843,2.946255 
	C286.718475,3.194689 302.865845,3.066783 319.473755,3.063233 
	C319.936432,3.048227 320.119965,3.482048 319.977417,4.020432 
	C315.983154,13.751043 312.097900,22.929380 308.285431,32.137859 
	C289.913696,76.512184 271.526855,120.880325 253.223419,165.282837 
	C247.655258,178.790695 242.336365,192.401291 236.903305,205.964828 
	C236.903305,205.964828 236.965775,205.955292 236.944687,205.931473 
z"/>
<path fill="#307DD6" opacity="1.000000" stroke="none" 
	d="
M112.420990,241.035522 
	C123.417175,263.793640 134.580627,286.827484 145.021561,310.184357 
	C147.878387,316.575256 151.088928,319.104950 158.238876,318.759705 
	C171.856415,318.102234 185.527893,318.562103 199.176987,318.558197 
	C200.953308,318.557709 202.729614,318.558136 205.440186,318.558136 
	C183.323334,270.991394 161.625992,224.326920 139.902100,177.278351 
	C142.846237,181.722153 146.180832,186.367798 148.710052,191.416870 
	C153.608093,201.194839 158.094498,211.180710 162.672501,221.116806 
	C166.556503,229.546661 170.275635,238.052505 174.161743,246.481384 
	C184.230316,268.320007 194.361160,290.129913 204.444794,311.961609 
	C207.811798,319.251434 207.332718,320.124268 199.295197,320.263794 
	C183.685944,320.534821 168.070740,320.843597 152.466507,320.597107 
	C150.209457,320.561462 147.038269,318.022003 145.928543,315.816711 
	C140.045135,304.124969 134.659729,292.181610 129.150711,280.302734 
	C123.531227,268.185669 117.953888,256.048981 112.418816,243.893234 
	C112.103638,243.201065 112.337662,242.258820 112.420990,241.035522 
z"/>
<path fill="#4084CF" opacity="1.000000" stroke="none" 
	d="
M934.411377,81.989258 
	C934.585571,91.034966 934.426636,100.170410 934.289978,109.306190 
	C934.253052,111.773293 934.284241,114.241409 934.284241,117.249329 
	C924.630920,117.249329 915.505066,117.245872 906.379211,117.250549 
	C900.220459,117.253708 894.057068,117.412766 887.905029,117.214386 
	C885.012573,117.121117 883.887390,118.232529 883.126587,120.924446 
	C873.594788,154.651367 863.952515,188.347076 854.322021,222.046051 
	C853.901672,223.516907 853.322021,224.942276 852.816589,226.388809 
	C852.299744,226.395538 851.782898,226.402283 851.266052,226.409012 
	C841.160400,190.540054 831.054810,154.671097 820.955078,118.406723 
	C822.150146,120.512047 823.716309,122.904556 824.470459,125.530289 
	C832.189880,152.406921 839.786804,179.318802 847.389893,206.228760 
	C848.294861,209.431763 848.944336,212.708191 849.889709,215.897980 
	C850.300049,217.282410 851.160156,218.533508 851.816040,219.845154 
	C852.252075,219.800262 852.688110,219.755386 853.124207,219.710495 
	C853.670471,218.239578 854.329224,216.799789 854.746094,215.293076 
	C860.604736,194.117020 866.350098,172.909271 872.297729,151.758362 
	C875.312561,141.037140 878.786438,130.445251 881.822815,119.729721 
	C882.803406,116.269257 885.150574,116.016281 887.939209,116.018333 
	C899.938599,116.027168 911.937927,116.038361 923.937317,116.036850 
	C932.224854,116.035805 932.968201,115.340271 932.911804,106.821121 
	C932.867859,100.179092 932.501160,93.537979 932.530518,86.897575 
	C932.537598,85.289169 933.541138,83.685158 934.411377,81.989258 
z"/>
<path fill="#327DD4" opacity="1.000000" stroke="none" 
	d="
M237.231110,205.855026 
	C242.336365,192.401291 247.655258,178.790695 253.223419,165.282837 
	C271.526855,120.880325 289.913696,76.512184 308.285431,32.137859 
	C312.097900,22.929380 315.983154,13.751043 320.035583,4.248659 
	C318.509430,9.546285 317.177765,15.313775 314.987274,20.734198 
	C305.509094,44.188114 295.715485,67.514374 286.176056,90.943832 
	C282.739197,99.385010 279.940460,108.089005 276.417542,116.491508 
	C269.360352,133.323471 261.929993,149.998596 254.798447,166.799896 
	C250.000229,178.104050 245.495346,189.532532 240.742264,200.856293 
	C240.001740,202.620499 238.635696,204.122162 237.231110,205.855026 
z"/>
<path fill="#4084CF" opacity="1.000000" stroke="none" 
	d="
M895.072632,211.954895 
	C898.446472,201.359009 902.045166,190.488693 905.747803,179.653885 
	C908.863220,170.537094 912.201660,161.495316 915.226868,152.349411 
	C916.271484,149.191422 917.798218,147.733353 921.309387,148.014099 
	C925.405457,148.341599 929.547791,148.090576 934.278992,148.090576 
	C934.278992,150.626556 934.278687,152.585052 934.278992,154.543564 
	C934.283081,178.349655 934.307495,202.155762 934.281616,225.961823 
	C934.271240,235.510086 936.251892,244.445251 942.073730,252.651138 
	C936.682983,250.102554 935.436401,244.484314 934.323364,239.312485 
	C932.970215,233.025040 932.301453,226.487595 932.222656,220.047455 
	C931.964294,198.934540 932.115112,177.816666 932.087769,156.700745 
	C932.083923,153.736404 932.588318,150.584229 928.148499,149.989685 
	C921.030640,149.036514 918.167847,149.901917 916.594543,154.278275 
	C910.301208,171.784119 904.087097,189.318420 897.786072,206.821472 
	C897.174805,208.519440 896.166443,210.074448 895.072632,211.954895 
z"/>
<path fill="#4084CF" opacity="1.000000" stroke="none" 
	d="
M951.112793,261.274414 
	C968.604004,270.155090 986.781006,269.441284 1005.948792,264.209747 
	C1003.824036,254.103775 1001.757874,244.276260 999.600098,234.012939 
	C996.313232,234.402939 993.410950,234.945648 990.492126,235.057602 
	C980.460388,235.442352 975.538635,231.318451 975.430298,221.451218 
	C975.176025,198.296097 975.376221,175.136230 975.301208,151.978577 
	C975.291077,148.864075 976.607239,148.002792 979.524536,148.055023 
	C987.019226,148.189148 994.518188,148.083557 1002.473206,148.106140 
	C1001.337097,148.730286 999.760803,149.769318 998.146240,149.832520 
	C992.657349,150.047440 987.153198,150.002502 981.658386,149.888901 
	C978.221436,149.817871 976.913025,151.364761 976.923828,154.707520 
	C976.995789,177.029709 976.847168,199.353638 977.080566,221.673752 
	C977.171204,230.348038 985.145691,235.676468 993.479553,233.218704 
	C999.687256,231.387985 1000.452209,231.817505 1001.932434,238.265396 
	C1003.602722,245.541122 1005.042786,252.874496 1006.911255,260.097900 
	C1007.831970,263.657532 1006.619080,265.475067 1003.424683,266.560852 
	C994.785522,269.497131 985.896545,270.818176 976.852844,269.664764 
	C970.614563,268.869141 964.405457,267.535309 958.333862,265.887421 
	C955.766479,265.190582 953.585693,263.069611 951.112793,261.274414 
z"/>
<path fill="#3A80C9" opacity="1.000000" stroke="none" 
	d="
M1048.948730,228.739136 
	C1040.973145,222.028961 1039.039551,212.780746 1038.932983,202.055511 
	C1072.763184,202.055511 1106.081665,202.055511 1139.675659,202.055511 
	C1140.989014,181.913925 1139.249390,163.024841 1129.016846,145.340729 
	C1130.210083,146.451813 1131.753906,147.761887 1132.634399,149.423492 
	C1140.833374,164.897491 1142.472046,181.634247 1141.902710,198.774475 
	C1141.749756,203.376587 1138.719482,203.967850 1135.015137,203.959808 
	C1114.186157,203.914581 1093.357300,203.934677 1072.528320,203.935638 
	C1064.030151,203.936035 1055.531860,203.916077 1047.033813,203.958908 
	C1041.293335,203.987854 1039.876831,205.188507 1041.255493,210.777847 
	C1042.422607,215.509445 1044.977051,219.902618 1046.960205,224.426819 
	C1047.550537,225.773590 1048.285522,227.056900 1048.948730,228.739136 
z"/>
<path fill="#4084CF" opacity="1.000000" stroke="none" 
	d="
M634.166016,68.076660 
	C634.395020,77.438103 634.499878,86.917946 634.194580,96.384560 
	C634.059448,100.575790 635.567322,101.799622 639.643799,101.772644 
	C663.086304,101.617477 686.530640,101.616486 709.973694,101.714714 
	C719.150574,101.753166 727.361145,104.298119 733.116089,112.547165 
	C730.883667,111.337502 728.580933,109.782684 726.266296,108.245827 
	C720.373596,104.333244 713.787720,102.975708 706.832336,103.016342 
	C684.382080,103.147522 661.931824,103.276955 639.481689,103.427605 
	C633.629822,103.466881 632.263428,101.458023 632.549133,95.455627 
	C632.910583,87.863243 632.458069,80.234886 632.539429,72.623993 
	C632.555359,71.141296 633.408264,69.667557 634.166016,68.076660 
z"/>
<path fill="#307DD6" opacity="1.000000" stroke="none" 
	d="
M139.811676,176.221436 
	C132.549377,161.503067 125.311584,146.362656 118.156738,131.183167 
	C110.071960,114.030777 102.061691,96.843262 94.021378,78.962326 
	C94.049362,77.790726 94.074974,77.327820 94.100594,76.864906 
	C96.872948,81.954430 99.880974,86.931633 102.370888,92.155769 
	C108.433731,104.876350 114.287109,117.697296 120.166527,130.504593 
	C125.615433,142.374115 131.038727,154.256027 136.361298,166.182480 
	C137.746582,169.286514 138.713638,172.577209 139.811676,176.221436 
z"/>
<path fill="#4084CF" opacity="1.000000" stroke="none" 
	d="
M747.884888,72.863571 
	C731.906860,67.502808 715.105957,67.869881 698.301208,67.966759 
	C677.504944,68.086655 656.707275,67.964851 635.452942,67.858688 
	C636.793762,67.208519 638.589966,66.164940 640.390137,66.158150 
	C666.863281,66.058144 693.347839,65.664558 719.804688,66.332245 
	C729.238708,66.570335 739.116821,67.257881 747.884888,72.863571 
z"/>
<path fill="#4084CF" opacity="1.000000" stroke="none" 
	d="
M862.250854,298.890106 
	C871.331177,274.009705 880.755493,249.055298 890.156372,224.092087 
	C891.559937,220.364868 892.853577,216.596237 894.482300,212.585495 
	C892.234436,220.703110 889.923340,229.156708 887.123352,237.445084 
	C881.551636,253.938477 875.904419,270.412750 869.851562,286.732910 
	C868.245911,291.062225 865.051880,294.802490 862.250854,298.890106 
z"/>
<path fill="#4084CF" opacity="1.000000" stroke="none" 
	d="
M1003.525085,147.733734 
	C1003.208435,137.952774 1003.208435,127.998131 1003.208435,117.420135 
	C993.843262,117.420135 984.945801,117.420135 975.256592,117.420135 
	C975.256592,105.544998 975.256592,94.287422 975.259827,82.581352 
	C975.823059,84.119751 976.813477,86.095268 976.866394,88.095581 
	C977.063904,95.562057 977.064453,103.038872 976.915649,110.507355 
	C976.834229,114.590813 978.567505,116.183640 982.578369,116.072060 
	C988.218811,115.915154 993.867493,116.032227 999.512390,116.066505 
	C1002.198242,116.082817 1004.801147,116.658012 1004.829224,119.949112 
	C1004.904175,128.739456 1004.738708,137.532104 1004.617432,146.323120 
	C1004.611694,146.738907 1004.111572,147.147888 1003.525085,147.733734 
z"/>
<path fill="#3A80C9" opacity="1.000000" stroke="none" 
	d="
M1012.705627,142.065796 
	C1002.465576,157.792786 997.798767,175.298767 998.168823,194.195801 
	C998.391113,205.545044 1000.220764,216.630356 1004.428772,227.596130 
	C1002.438110,222.447403 999.806885,217.095444 998.513000,211.437607 
	C994.321228,193.107895 996.599304,175.094879 1003.151062,157.714859 
	C1005.247070,152.154648 1009.242188,147.310349 1012.705627,142.065796 
z"/>
<path fill="#3578BD" opacity="1.000000" stroke="none" 
	d="
M656.080933,126.771362 
	C656.480591,124.272133 657.167542,121.567055 658.042725,118.121040 
	C652.330811,118.121040 646.947998,118.120667 641.565186,118.121132 
	C634.088135,118.121780 626.605103,118.297127 619.136658,118.044357 
	C615.826782,117.932335 614.490479,119.185600 613.675720,122.228607 
	C611.489685,130.393204 609.018005,138.481339 606.402649,146.859100 
	C608.546326,137.842117 610.772949,128.513504 613.527954,119.343628 
	C613.962402,117.897514 616.766296,116.289597 618.508179,116.250420 
	C630.632202,115.977768 642.765869,116.022888 654.894836,116.134552 
	C659.345093,116.175507 660.523193,118.177696 658.786072,122.239563 
	C658.140137,123.749992 657.183350,125.127426 656.080933,126.771362 
z"/>
<path fill="#3A80C9" opacity="1.000000" stroke="none" 
	d="
M1109.970459,125.615471 
	C1092.594238,116.118370 1073.912354,113.448357 1054.369263,117.017380 
	C1048.725952,118.048019 1043.312378,120.337219 1037.413086,122.082886 
	C1040.484985,120.375038 1043.763550,118.002594 1047.418335,116.996895 
	C1067.953857,111.346031 1087.894409,113.285141 1107.054199,122.632668 
	C1108.164062,123.174149 1108.948364,124.382912 1109.970459,125.615471 
z"/>
<path fill="#3A80C9" opacity="1.000000" stroke="none" 
	d="
M1040.418945,263.881897 
	C1059.640625,270.054901 1079.282593,271.217285 1098.835938,264.969849 
	C1105.974243,262.689117 1112.479492,258.427002 1119.615479,254.991089 
	C1116.398926,257.679108 1113.219971,261.310791 1109.218140,263.064423 
	C1089.156738,271.855469 1068.338501,272.064972 1047.299194,267.192749 
	C1044.954712,266.649872 1042.815186,265.223053 1040.418945,263.881897 
z"/>
<path fill="#4084CF" opacity="1.000000" stroke="none" 
	d="
M704.824951,150.313019 
	C696.464661,150.694519 687.873657,150.734222 679.285583,150.912735 
	C676.640625,150.967712 675.848206,149.795502 675.881653,147.334488 
	C675.969360,140.885925 675.928589,134.435257 675.896118,127.985641 
	C675.887329,126.243782 675.725769,124.502686 675.563293,121.409264 
	C674.370239,123.541901 673.852783,124.466866 673.071838,125.403244 
	C672.760132,125.233597 672.711914,125.052536 672.663696,124.871475 
	C673.544312,122.746094 674.424866,120.620712 675.305420,118.495323 
	C675.861877,118.590218 676.418274,118.685104 676.974670,118.779991 
	C677.293945,120.584053 677.861755,122.384506 677.888062,124.192825 
	C677.984619,130.832565 677.987671,137.476669 677.851074,144.115555 
	C677.777100,147.712784 679.244019,149.115494 682.872437,149.164062 
	C690.116028,149.261047 697.354675,149.716980 704.824951,150.313019 
z"/>
<path fill="#3A80C9" opacity="1.000000" stroke="none" 
	d="
M1135.191772,236.934204 
	C1136.308228,232.896194 1137.760864,228.736267 1139.466064,223.852722 
	C1132.594604,223.248230 1126.546509,222.669891 1120.489990,222.198410 
	C1115.856567,221.837692 1111.195312,221.773392 1106.579224,221.273605 
	C1103.096436,220.896515 1100.559692,221.356430 1099.201660,225.163010 
	C1098.571533,226.929306 1096.816772,228.294357 1095.241943,229.965652 
	C1097.563599,221.220886 1099.228394,219.714569 1108.035767,220.077667 
	C1117.629639,220.473221 1127.202026,221.382462 1136.786255,222.030273 
	C1139.431030,222.209061 1141.117798,223.313965 1140.103882,226.113113 
	C1138.785156,229.754349 1137.071411,233.252548 1135.191772,236.934204 
z"/>
<path fill="#307DD6" opacity="1.000000" stroke="none" 
	d="
M151.228302,53.877640 
	C151.001923,37.260685 151.117111,20.589725 151.142700,3.458138 
	C151.888474,4.043845 153.444046,5.085482 153.450897,6.137224 
	C153.548935,21.161217 153.467911,36.186905 153.300262,51.210739 
	C153.290466,52.088032 152.172256,52.952957 151.228302,53.877640 
z"/>
<path fill="#3774B3" opacity="1.000000" stroke="none" 
	d="
M635.221863,266.278687 
	C662.017090,266.005890 689.014038,265.985291 716.010803,265.918182 
	C720.674866,265.906586 725.338318,265.697937 730.374146,265.662323 
	C728.044678,266.210602 725.344910,267.070312 722.641418,267.081879 
	C697.314270,267.190277 671.986450,267.179810 646.658997,267.129852 
	C642.913452,267.122437 639.168640,266.729645 635.221863,266.278687 
z"/>
<path fill="#4084CF" opacity="1.000000" stroke="none" 
	d="
M820.837891,117.687103 
	C818.037964,117.785530 815.101013,117.311638 812.160217,117.286293 
	C801.374817,117.193321 790.588074,117.249443 780.765930,117.249443 
	C778.011719,109.015404 775.471558,101.421379 772.874512,93.461365 
	C778.208008,96.935257 778.979065,103.058083 779.797607,108.756622 
	C780.831299,115.952904 780.385864,116.034294 787.816467,116.038910 
	C796.923462,116.044571 806.031433,115.964149 815.136658,116.090050 
	C816.996094,116.115761 818.845276,116.890945 820.837891,117.687103 
z"/>
<path fill="#3578BD" opacity="1.000000" stroke="none" 
	d="
M560.374695,267.098083 
	C574.203552,266.851044 588.359741,266.738281 602.510864,266.954468 
	C605.899109,267.006226 607.084656,265.663788 607.999329,262.705566 
	C609.862732,256.679047 612.137390,250.779709 614.532227,244.562805 
	C612.733765,251.281647 610.781433,258.312012 608.428345,265.205536 
	C608.020508,266.400299 605.916992,267.781769 604.596252,267.782166 
	C589.964233,267.786407 575.332214,267.535126 560.374695,267.098083 
z"/>
<path fill="#4084CF" opacity="1.000000" stroke="none" 
	d="
M974.768494,81.587570 
	C961.919617,81.940552 948.897217,81.963905 935.406494,81.923027 
	C936.046875,81.289307 937.150452,80.236748 938.264954,80.225014 
	C949.486450,80.106911 960.709900,80.134743 971.932190,80.211227 
	C972.822083,80.217285 973.707458,80.893280 974.768494,81.587570 
z"/>
<path fill="#3A80C9" opacity="1.000000" stroke="none" 
	d="
M1093.673706,230.939728 
	C1085.161621,239.562515 1067.156128,240.892761 1054.534912,233.530609 
	C1060.160522,234.180969 1066.014404,235.148239 1071.875854,236.066879 
	C1079.707031,237.294250 1086.509888,234.153778 1093.673706,230.939728 
z"/>
<path fill="#3578BD" opacity="1.000000" stroke="none" 
	d="
M592.870056,192.193848 
	C590.217163,202.747787 587.269775,213.515976 584.322449,224.284164 
	C583.698547,224.297470 583.074585,224.310791 582.450684,224.324112 
	C581.198853,219.855743 579.946960,215.387375 578.692505,210.508133 
	C580.122131,213.007706 581.554321,215.918152 583.434448,219.738937 
	C584.198120,217.797012 584.814514,216.436462 585.274658,215.024979 
	C587.729858,207.493027 590.145996,199.948364 592.870056,192.193848 
z"/>
<path fill="#3274B6" opacity="1.000000" stroke="none" 
	d="
M83.289093,55.985744 
	C82.933525,52.264557 85.883293,53.957321 87.175850,53.948326 
	C106.258385,53.815548 125.342155,53.860352 144.425629,53.863369 
	C146.250992,53.863659 148.076370,53.866112 150.346802,53.913666 
	C150.081314,54.352840 149.370758,54.745903 147.961349,55.121586 
	C146.498566,55.104042 145.734634,55.103870 144.970718,55.103699 
	C126.615761,55.107082 108.260811,55.110466 89.071396,55.083382 
	C87.508812,55.089725 86.780678,55.126534 86.052551,55.163342 
	C85.567116,55.340752 85.081673,55.518162 84.153046,55.820591 
	C83.709846,55.945614 83.289093,55.985744 83.289093,55.985744 
z"/>
<path fill="#3578BD" opacity="1.000000" stroke="none" 
	d="
M545.010559,225.324371 
	C549.486572,237.276505 553.938843,249.636673 558.454102,262.386963 
	C557.121826,260.046875 555.379883,257.435699 554.394287,254.564850 
	C551.112183,245.004242 548.101501,235.350464 545.010559,225.324371 
z"/>
<path fill="#3178C5" opacity="1.000000" stroke="none" 
	d="
M672.436890,125.126709 
	C672.711914,125.052536 672.760132,125.233597 672.893005,125.682739 
	C668.860535,137.849014 664.743408,149.747223 660.353394,161.886902 
	C660.955505,158.446335 661.532898,154.661346 662.764404,151.102737 
	C665.750854,142.473053 669.041809,133.948730 672.436890,125.126709 
z"/>
<path fill="#4084CF" opacity="1.000000" stroke="none" 
	d="
M772.884521,92.789597 
	C766.673767,84.451996 758.696899,77.951569 748.569824,73.540146 
	C759.462280,75.864166 768.076660,81.705711 772.884521,92.789597 
z"/>
<path fill="#4084CF" opacity="1.000000" stroke="none" 
	d="
M797.623657,287.193970 
	C794.996399,297.161835 792.028748,307.187622 789.080811,317.605957 
	C788.797363,316.281677 787.869568,314.389130 788.294922,312.877319 
	C790.600464,304.684052 793.221680,296.578888 795.809875,288.467529 
	C795.972595,287.957520 796.777283,287.652344 797.623657,287.193970 
z"/>
<path fill="#3178C5" opacity="1.000000" stroke="none" 
	d="
M636.721436,228.176483 
	C632.544861,239.744278 634.718323,252.034439 634.079590,264.576355 
	C633.379883,263.135437 632.285461,261.237183 632.253174,259.320984 
	C632.149902,253.199371 632.001587,247.018387 632.728516,240.963318 
	C633.242615,236.681412 635.148010,232.566544 636.721436,228.176483 
z"/>
<path fill="#4084CF" opacity="1.000000" stroke="none" 
	d="
M733.114746,113.230759 
	C738.982544,121.070099 738.666809,131.451797 732.029297,140.286896 
	C732.191040,138.946518 732.444336,137.343292 733.104309,135.929947 
	C735.857727,130.033417 736.937866,124.127380 734.054077,117.918922 
	C733.452026,116.623024 733.398193,115.072517 733.114746,113.230759 
z"/>
<path fill="#3578BD" opacity="1.000000" stroke="none" 
	d="
M605.876709,147.322784 
	C603.346985,157.286880 600.538452,167.473969 597.487671,177.938049 
	C599.119080,170.436783 600.920105,162.639908 602.908203,154.891006 
	C603.552917,152.377991 604.687439,149.990616 605.876709,147.322784 
z"/>
<path fill="#3374B4" opacity="1.000000" stroke="none" 
	d="
M550.943054,117.984299 
	C537.321289,118.019943 523.699524,118.055580 509.631287,118.037247 
	C509.574646,117.664078 509.964508,117.344887 510.931122,116.976875 
	C511.721191,116.923981 511.934509,116.919907 512.147827,116.915833 
	C524.789734,116.911743 537.431641,116.907646 550.527161,117.190346 
	C550.968201,117.646187 550.955627,117.815239 550.943054,117.984299 
z"/>
<path fill="#3578BD" opacity="1.000000" stroke="none" 
	d="
M551.223389,118.235542 
	C550.955627,117.815239 550.968201,117.646187 550.995605,117.223175 
	C551.663879,117.350143 552.758118,117.607666 552.904602,118.130600 
	C554.978760,125.536873 556.924438,132.979156 558.821655,140.840607 
	C556.329285,133.674561 553.916504,126.080681 551.223389,118.235542 
z"/>
<path fill="#3578BD" opacity="1.000000" stroke="none" 
	d="
M644.200989,160.773056 
	C646.648254,152.705704 649.398193,144.454315 652.394531,135.938095 
	C651.777405,139.284866 651.165649,142.980942 649.989014,146.487488 
	C648.386292,151.263748 646.352600,155.895370 644.200989,160.773056 
z"/>
<path fill="#3578BD" opacity="1.000000" stroke="none" 
	d="
M565.842896,165.210541 
	C563.423767,157.739578 561.055298,149.814026 558.667358,141.470367 
	C561.063171,148.953506 563.478455,156.854736 565.842896,165.210541 
z"/>
<path fill="#3E83CD" opacity="1.000000" stroke="none" 
	d="
M93.983215,76.528137 
	C94.074974,77.327820 94.049362,77.790726 93.991615,78.596687 
	C90.633118,71.868073 87.306755,64.796410 83.974426,57.351311 
	C87.267586,63.382378 90.566711,69.786873 93.983215,76.528137 
z"/>
<path fill="#3578BD" opacity="1.000000" stroke="none" 
	d="
M636.126953,183.683929 
	C638.340637,176.352158 640.865540,168.865997 643.657715,161.142822 
	C641.429382,168.447052 638.933777,175.988297 636.126953,183.683929 
z"/>
<path fill="#4084CF" opacity="1.000000" stroke="none" 
	d="
M845.316650,315.003418 
	C849.246277,311.270386 853.559204,307.565338 858.162720,303.710266 
	C856.389954,309.816284 851.896118,313.370117 845.316650,315.003418 
z"/>
<path fill="#4084CF" opacity="1.000000" stroke="none" 
	d="
M725.889648,145.256897 
	C721.207275,149.577484 715.068359,150.469879 708.342285,150.711853 
	C709.228577,150.048767 710.492004,149.357529 711.842346,148.967346 
	C716.377441,147.656952 720.943481,146.453873 725.889648,145.256897 
z"/>
<path fill="#3578BD" opacity="1.000000" stroke="none" 
	d="
M538.049072,205.274200 
	C540.408447,211.312866 542.736877,217.764526 545.070679,224.611862 
	C542.723389,218.567429 540.370728,212.127319 538.049072,205.274200 
z"/>
<path fill="#3578BD" opacity="1.000000" stroke="none" 
	d="
M620.123230,229.687088 
	C621.965454,223.324966 624.117065,216.805344 626.546082,210.055908 
	C624.693176,216.393951 622.562927,222.961761 620.123230,229.687088 
z"/>
<path fill="#3178C5" opacity="1.000000" stroke="none" 
	d="
M645.870361,202.268311 
	C644.340393,207.625717 642.497559,213.143097 640.389526,218.903320 
	C641.935425,213.573563 643.746460,208.000916 645.870361,202.268311 
z"/>
<path fill="#3A80C9" opacity="1.000000" stroke="none" 
	d="
M1120.283936,254.964569 
	C1123.052856,251.690155 1126.185913,248.432236 1129.619141,245.021637 
	C1128.840698,250.084106 1125.291138,253.033905 1120.283936,254.964569 
z"/>
<path fill="#3A80C9" opacity="1.000000" stroke="none" 
	d="
M1129.032227,144.656830 
	C1126.282959,141.720535 1123.558472,138.403549 1120.680664,134.788025 
	C1125.736206,135.689835 1127.621704,139.786789 1129.032227,144.656830 
z"/>
<path fill="#3578BD" opacity="1.000000" stroke="none" 
	d="
M575.909668,199.744751 
	C574.110596,194.427261 572.359314,188.693405 570.550781,182.544373 
	C572.314880,187.862259 574.136230,193.595337 575.909668,199.744751 
z"/>
<path fill="#3578BD" opacity="1.000000" stroke="none" 
	d="
M615.114746,243.948822 
	C616.328125,239.577713 617.816040,234.958435 619.558899,230.092560 
	C618.338989,234.464188 616.864136,239.082428 615.114746,243.948822 
z"/>
<path fill="#4084CF" opacity="1.000000" stroke="none" 
	d="
M827.280396,321.307312 
	C830.689819,320.069672 834.433167,319.010712 838.565125,317.949005 
	C835.929138,321.545319 831.976196,322.170685 827.280396,321.307312 
z"/>
<path fill="#3A80C9" opacity="1.000000" stroke="none" 
	d="
M1029.123779,258.221100 
	C1032.635132,259.631592 1036.236572,261.375702 1040.078613,263.359772 
	C1036.617310,261.918030 1032.915649,260.236359 1029.123779,258.221100 
z"/>
<path fill="#3178C5" opacity="1.000000" stroke="none" 
	d="
M659.828857,162.198578 
	C658.658142,166.584305 657.182983,171.155609 655.421875,175.951675 
	C656.598694,171.579010 658.061523,166.981583 659.828857,162.198578 
z"/>
<path fill="#3578BD" opacity="1.000000" stroke="none" 
	d="
M569.749512,179.064835 
	C568.407227,175.239471 567.149231,170.971970 565.884399,166.290466 
	C567.196228,170.125229 568.515015,174.373962 569.749512,179.064835 
z"/>
<path fill="#3578BD" opacity="1.000000" stroke="none" 
	d="
M597.021118,178.353058 
	C596.099426,182.432999 594.914124,186.756592 593.471436,191.381195 
	C594.395203,187.320358 595.576416,182.958542 597.021118,178.353058 
z"/>
<path fill="#3178C5" opacity="1.000000" stroke="none" 
	d="
M654.924011,176.246567 
	C654.039429,179.717056 652.869934,183.408844 651.423950,187.379608 
	C652.311340,183.928345 653.475220,180.198120 654.924011,176.246567 
z"/>
<path fill="#3A80C9" opacity="1.000000" stroke="none" 
	d="
M1011.305481,241.009521 
	C1013.217651,242.873428 1015.109070,245.111237 1017.113281,247.682404 
	C1015.245605,245.804962 1013.265137,243.594208 1011.305481,241.009521 
z"/>
<path fill="#3A80C9" opacity="1.000000" stroke="none" 
	d="
M1017.983643,249.156158 
	C1020.184326,250.680023 1022.403320,252.583755 1024.806152,254.765625 
	C1021.471558,254.716537 1018.818420,253.291443 1017.983643,249.156158 
z"/>
<path fill="#3A80C9" opacity="1.000000" stroke="none" 
	d="
M1026.802734,128.120209 
	C1024.996582,130.012848 1022.820435,131.921814 1020.328003,133.943848 
	C1020.182556,129.947250 1023.478394,129.226959 1026.802734,128.120209 
z"/>
<path fill="#3A80C9" opacity="1.000000" stroke="none" 
	d="
M1004.930542,229.720581 
	C1006.396484,231.919022 1007.836182,234.483124 1009.350342,237.402863 
	C1007.917969,235.201096 1006.411133,232.643661 1004.930542,229.720581 
z"/>
<path fill="#3774B3" opacity="1.000000" stroke="none" 
	d="
M735.368896,265.396423 
	C738.739685,264.402008 742.433289,263.574554 746.534668,262.754333 
	C743.192139,263.695496 739.441895,264.629425 735.368896,265.396423 
z"/>
<path fill="#3A80C9" opacity="1.000000" stroke="none" 
	d="
M1036.719971,122.036377 
	C1034.792847,123.508354 1032.473633,124.950912 1029.818115,126.502472 
	C1031.763794,125.076630 1034.045898,123.541794 1036.719971,122.036377 
z"/>
<path fill="#3A80C9" opacity="1.000000" stroke="none" 
	d="
M1130.217529,244.888062 
	C1131.298706,242.563477 1132.732300,240.179916 1134.437988,237.566620 
	C1133.330078,239.834274 1131.950073,242.331680 1130.217529,244.888062 
z"/>
<path fill="#3578BD" opacity="1.000000" stroke="none" 
	d="
M578.823486,209.816498 
	C577.771545,207.106125 576.796509,203.978775 575.817749,200.457062 
	C576.842773,203.174988 577.871582,206.287262 578.823486,209.816498 
z"/>
<path fill="#3578BD" opacity="1.000000" stroke="none" 
	d="
M652.859314,135.651855 
	C653.466492,132.991638 654.391052,130.140488 655.591919,127.053940 
	C654.971008,129.699326 654.073853,132.580124 652.859314,135.651855 
z"/>
<path fill="#3178C5" opacity="1.000000" stroke="none" 
	d="
M648.992249,193.289139 
	C648.406494,195.922989 647.535828,198.785843 646.412354,201.901886 
	C647.008789,199.276108 647.858093,196.397110 648.992249,193.289139 
z"/>
<path fill="#3578BD" opacity="1.000000" stroke="none" 
	d="
M632.989197,192.682129 
	C633.573242,190.058517 634.444397,187.211899 635.561584,184.111145 
	C634.963806,186.724380 634.120117,189.591751 632.989197,192.682129 
z"/>
<path fill="#3578BD" opacity="1.000000" stroke="none" 
	d="
M627.057251,209.702881 
	C627.565247,207.362122 628.356628,204.798752 629.378906,201.969437 
	C628.853455,204.295746 628.097107,206.888016 627.057251,209.702881 
z"/>
<path fill="#3A80C9" opacity="1.000000" stroke="none" 
	d="
M1016.729309,137.077972 
	C1015.912781,138.591995 1014.750183,140.170258 1013.294373,141.898956 
	C1014.128540,140.413681 1015.255859,138.777939 1016.729309,137.077972 
z"/>
<path fill="#4084CF" opacity="1.000000" stroke="none" 
	d="
M731.155762,140.686691 
	C730.408997,141.923141 729.305054,143.076828 727.924500,144.363251 
	C728.698181,143.198608 729.748352,141.901276 731.155762,140.686691 
z"/>
<path fill="#3578BD" opacity="1.000000" stroke="none" 
	d="
M534.011841,193.330368 
	C534.824463,194.948059 535.613892,196.965973 536.468994,199.349518 
	C535.685913,197.720306 534.837219,195.725449 534.011841,193.330368 
z"/>
<path fill="#3178C5" opacity="1.000000" stroke="none" 
	d="
M639.847900,219.262360 
	C639.641235,220.926178 639.120056,222.779388 638.315674,224.855286 
	C638.532776,223.202545 639.033081,221.327148 639.847900,219.262360 
z"/>
<path fill="#3578BD" opacity="1.000000" stroke="none" 
	d="
M630.849121,198.681732 
	C631.110413,197.024643 631.688354,195.153229 632.516479,193.023254 
	C632.232971,194.665604 631.699280,196.566498 630.849121,198.681732 
z"/>
<path fill="#4084CF" opacity="1.000000" stroke="none" 
	d="
M858.828430,303.432739 
	C859.455811,302.075897 860.417053,300.654083 861.664551,299.077148 
	C861.021301,300.403900 860.091797,301.885834 858.828430,303.432739 
z"/>
<path fill="#3A80C9" opacity="1.000000" stroke="none" 
	d="
M1115.872803,129.808929 
	C1114.676392,129.323090 1113.421631,128.486938 1112.036011,127.352409 
	C1113.208252,127.855553 1114.511475,128.657074 1115.872803,129.808929 
z"/>
<path fill="#3578BD" opacity="1.000000" stroke="none" 
	d="
M536.371948,200.024704 
	C537.019775,201.187103 537.562134,202.729706 538.128296,204.629791 
	C537.523499,203.459824 536.894958,201.932358 536.371948,200.024704 
z"/>
<path fill="#3178C5" opacity="1.000000" stroke="none" 
	d="
M650.836548,188.059723 
	C650.664062,189.457123 650.185791,191.083649 649.456909,192.969116 
	C649.647827,191.581665 650.089355,189.935242 650.836548,188.059723 
z"/>
<path fill="#3A80C9" opacity="1.000000" stroke="none" 
	d="
M1054.015625,232.820328 
	C1053.191162,232.618286 1052.243774,232.086319 1051.140259,231.263214 
	C1051.953613,231.478180 1052.923096,231.984299 1054.015625,232.820328 
z"/>
<path fill="#3A80C9" opacity="1.000000" stroke="none" 
	d="
M1009.309875,238.024338 
	C1009.995605,238.476334 1010.625854,239.286041 1011.326782,240.402634 
	C1010.683167,239.933701 1009.968750,239.157883 1009.309875,238.024338 
z"/>
<path fill="#4084CF" opacity="1.000000" stroke="none" 
	d="
M842.070312,316.722839 
	C842.606445,316.112976 843.486511,315.561493 844.681152,314.974091 
	C844.135254,315.552551 843.274658,316.166870 842.070312,316.722839 
z"/>
<path fill="#3A80C9" opacity="1.000000" stroke="none" 
	d="
M1026.123657,256.237976 
	C1026.950684,256.403717 1027.867432,256.896515 1028.947021,257.663452 
	C1028.144409,257.480072 1027.178833,257.022583 1026.123657,256.237976 
z"/>
<path fill="#4084CF" opacity="1.000000" stroke="none" 
	d="
M948.146729,259.195557 
	C948.948242,259.393341 949.839172,259.919403 950.893127,260.713196 
	C950.116150,260.495270 949.176147,260.009552 948.146729,259.195557 
z"/>
<path fill="#3578BD" opacity="1.000000" stroke="none" 
	d="
M558.350769,262.969482 
	C558.844788,263.560638 559.247742,264.475647 559.633789,265.692444 
	C559.164490,265.093903 558.712097,264.193604 558.350769,262.969482 
z"/>
<path fill="#4084CF" opacity="1.000000" stroke="none" 
	d="
M944.444824,255.862061 
	C945.195862,256.164246 945.993896,256.799072 946.910461,257.720337 
	C946.183228,257.402771 945.337463,256.798737 944.444824,255.862061 
z"/>
<path fill="#3A80C9" opacity="1.000000" stroke="none" 
	d="
M1029.154053,126.573288 
	C1028.874268,127.111542 1028.270142,127.615936 1027.366699,128.146149 
	C1027.654785,127.627785 1028.242188,127.083611 1029.154053,126.573288 
z"/>
<path fill="#4084CF" opacity="1.000000" stroke="none" 
	d="
M839.285400,317.953552 
	C839.683167,317.512756 840.413818,317.078308 841.473511,316.633911 
	C841.074463,317.069275 840.346375,317.514587 839.285400,317.953552 
z"/>
<path fill="#3578BD" opacity="1.000000" stroke="none" 
	d="
M629.823242,201.578857 
	C629.751099,200.919586 629.961060,200.041260 630.407959,198.915375 
	C630.465027,199.565125 630.285156,200.462448 629.823242,201.578857 
z"/>
<path fill="#307DD6" opacity="1.000000" stroke="none" 
	d="
M86.280800,55.288574 
	C86.780678,55.126534 87.508812,55.089725 88.600555,55.081856 
	C88.145805,55.211803 87.327423,55.312805 86.280800,55.288574 
z"/>
<path fill="#307DD6" opacity="1.000000" stroke="none" 
	d="
M145.206360,55.243088 
	C145.734634,55.103870 146.498566,55.104042 147.641418,55.146877 
	C147.160919,55.253857 146.301453,55.318169 145.206360,55.243088 
z"/>
<path fill="#3A80C9" opacity="1.000000" stroke="none" 
	d="
M1018.754822,135.077606 
	C1018.570557,135.626480 1018.078918,136.248001 1017.301758,136.974091 
	C1017.493286,136.435837 1017.970337,135.793045 1018.754822,135.077606 
z"/>
<path fill="#3A80C9" opacity="1.000000" stroke="none" 
	d="
M1117.368896,131.309464 
	C1116.974243,131.274750 1116.502197,130.946533 1115.935791,130.345917 
	C1116.324707,130.387665 1116.808105,130.701813 1117.368896,131.309464 
z"/>
<path fill="#3578BD" opacity="1.000000" stroke="none" 
	d="
M570.648315,182.038132 
	C570.345581,181.797363 570.087708,181.236725 569.858032,180.361328 
	C570.155212,180.603790 570.424133,181.161026 570.648315,182.038132 
z"/>
<path fill="#3578BD" opacity="1.000000" stroke="none" 
	d="
M533.138062,191.059723 
	C533.457031,191.275452 533.776367,191.807907 534.075134,192.662949 
	C533.749146,192.449173 533.443787,191.912811 533.138062,191.059723 
z"/>
<path fill="#4084CF" opacity="1.000000" stroke="none" 
	d="
M943.026001,254.203995 
	C943.406677,254.287277 943.862610,254.674026 944.405640,255.357880 
	C944.028809,255.272461 943.565002,254.889969 943.026001,254.203995 
z"/>
<path fill="#3A80C9" opacity="1.000000" stroke="none" 
	d="
M1111.823486,126.861946 
	C1111.468872,126.872063 1110.933960,126.645706 1110.218994,126.180603 
	C1110.573730,126.169731 1111.108643,126.397606 1111.823486,126.861946 
z"/>
<path fill="#3178C5" opacity="1.000000" stroke="none" 
	d="
M637.835693,225.228302 
	C637.939453,225.658813 637.801086,226.345215 637.397034,227.269897 
	C637.285400,226.833511 637.439514,226.158844 637.835693,225.228302 
z"/>
<path fill="#3774B3" opacity="1.000000" stroke="none" 
	d="
M747.587891,262.712555 
	C747.845642,262.421265 748.447205,262.144836 749.379822,261.873383 
	C749.117798,262.161407 748.524719,262.444427 747.587891,262.712555 
z"/>
<path fill="#3578BD" opacity="1.000000" stroke="none" 
	d="
M511.994629,116.839218 
	C511.934509,116.919907 511.721191,116.923981 511.186859,116.923599 
	C511.191040,116.866966 511.516235,116.814789 511.994629,116.839218 
z"/>
<path fill="#3E83CD" opacity="1.000000" stroke="none" 
	d="
M83.316513,56.210381 
	C83.289093,55.985744 83.709846,55.945614 83.922745,55.939899 
	C84.130585,56.120617 84.125534,56.307049 84.056602,56.765949 
	C83.689156,56.931133 83.472893,56.730000 83.316513,56.210381 
z"/>
<path fill="#4084CF" opacity="1.000000" stroke="none" 
	d="
M727.210449,144.656158 
	C727.216003,144.853455 726.964539,145.078827 726.454468,145.328430 
	C726.448486,145.129837 726.700928,144.907028 727.210449,144.656158 
z"/>
<path fill="#3A80C9" opacity="1.000000" stroke="none" 
	d="
M1019.824524,134.108795 
	C1019.885132,134.307144 1019.710510,134.618103 1019.265869,134.995361 
	C1019.193665,134.781586 1019.391418,134.501495 1019.824524,134.108795 
z"/>
<path fill="#4084CF" opacity="1.000000" stroke="none" 
	d="
M947.114014,258.202759 
	C947.310364,258.124603 947.635498,258.273743 948.045654,258.687958 
	C947.834656,258.778748 947.538757,258.604431 947.114014,258.202759 
z"/>
<path fill="#3A80C9" opacity="1.000000" stroke="none" 
	d="
M1120.523193,134.256439 
	C1120.325439,134.306747 1120.024292,134.095840 1119.623169,133.620728 
	C1119.822021,133.569427 1120.120850,133.782333 1120.523193,134.256439 
z"/>
<path fill="#3A80C9" opacity="1.000000" stroke="none" 
	d="
M1025.082764,255.255219 
	C1025.284790,255.166550 1025.606689,255.304764 1026.005615,255.704956 
	C1025.789185,255.805313 1025.495972,255.643707 1025.082764,255.255219 
z"/>
<path fill="#3A80C9" opacity="1.000000" stroke="none" 
	d="
M1049.865479,229.868469 
	C1049.664551,229.929565 1049.341064,229.753403 1048.951660,229.296661 
	C1049.171631,229.221130 1049.457275,229.426178 1049.865479,229.868469 
z"/>
<path fill="#3A80C9" opacity="1.000000" stroke="none" 
	d="
M1119.530640,133.251205 
	C1119.344238,133.334824 1119.032471,133.182022 1118.589233,132.794250 
	C1118.773682,132.711121 1119.089355,132.862946 1119.530640,133.251205 
z"/>
<path fill="#3A80C9" opacity="1.000000" stroke="none" 
	d="
M1050.901123,230.778381 
	C1050.708618,230.852417 1050.386719,230.700836 1049.979126,230.286499 
	C1050.186157,230.200089 1050.479126,230.376419 1050.901123,230.778381 
z"/>
<path fill="#3A80C9" opacity="1.000000" stroke="none" 
	d="
M1118.376709,132.328583 
	C1118.123413,132.498047 1117.853516,132.324478 1117.546875,131.820801 
	C1117.726074,131.760544 1118.009521,131.925491 1118.376709,132.328583 
z"/>
<path fill="#1578ED" opacity="1.000000" stroke="none" 
	d="
M715.446411,231.567719 
	C702.212036,231.619415 689.434021,231.619415 676.345825,231.619415 
	C676.345825,214.073105 676.345825,196.994080 676.345825,180.009262 
	C676.765320,179.724289 677.035461,179.379974 677.302002,179.382751 
	C691.447510,179.529999 705.681580,178.776337 719.715149,180.117798 
	C736.881348,181.758698 747.458252,198.262787 742.855286,214.177444 
	C739.753540,224.901596 731.502441,229.188049 721.372375,230.963165 
	C719.572144,231.278625 717.727051,231.338272 715.446411,231.567719 
z"/>
<path fill="#1879EC" opacity="1.000000" stroke="none" 
	d="
M1090.371704,152.578613 
	C1098.009277,158.929047 1101.427490,166.730011 1101.078125,176.580917 
	C1080.292725,176.580917 1059.931885,176.580917 1039.069946,176.580917 
	C1039.752808,165.181549 1044.507202,156.377670 1053.996704,150.862625 
	C1066.115723,143.819336 1078.371948,144.268387 1090.371704,152.578613 
z"/>
</svg>