<svg version="1.1" id="Layer_1" xmlns="http://www.w3.org/2000/svg" xmlns:xlink="http://www.w3.org/1999/xlink" x="0px" y="0px"
	 width="100%" viewBox="0 0 1024 448" enable-background="new 0 0 1024 448" xml:space="preserve">
<path fill="#000000" opacity="1.000000" stroke="none" 
	d="
M676.778992,269.646179 
	C674.237305,276.755951 671.987366,283.556641 669.433594,290.241333 
	C660.580017,313.416748 639.950317,316.632721 621.481995,312.387665 
	C618.052551,311.599396 617.224060,309.738159 618.486755,306.538818 
	C619.216003,304.690826 619.529968,302.683472 620.151306,300.787323 
	C621.133972,297.788727 621.546570,294.264221 623.438110,291.993042 
	C625.546021,289.461975 629.015137,292.058380 631.924561,291.939148 
	C639.160095,291.642639 645.456726,284.695312 643.215515,278.144043 
	C633.194519,248.851349 622.838684,219.673187 612.124634,189.085785 
	C608.918457,200.833282 601.813904,207.423294 590.452454,211.137466 
	C598.498291,213.044235 604.662964,215.962433 609.455566,221.337189 
	C625.142883,238.930099 616.808655,267.037842 593.402832,275.192200 
	C587.712769,277.174561 581.802063,278.237396 575.759766,278.253174 
	C558.596130,278.298065 541.430847,278.158997 524.269592,278.367920 
	C519.903625,278.421021 518.648010,277.027771 518.500610,272.660553 
	C518.186523,263.352203 519.671692,254.581467 522.908081,245.820938 
	C529.715149,227.394730 535.949402,208.757294 542.498108,190.234634 
	C543.133667,188.436798 543.241760,186.277145 545.518982,184.704956 
	C547.016235,189.217117 546.326355,193.645874 546.174316,197.920029 
	C546.022827,202.183060 547.194824,204.020325 551.750366,203.711288 
	C556.892517,203.362473 562.083130,203.795380 567.240601,203.588898 
	C575.863525,203.243668 582.719971,197.881836 583.751831,190.964157 
	C585.291992,180.637924 579.000854,173.491516 567.855103,173.360291 
	C553.359558,173.189651 538.858459,173.166504 524.364380,173.384781 
	C519.888428,173.452164 517.987549,172.315582 518.507141,167.503830 
	C518.969666,163.219894 518.662964,158.848694 518.625000,154.516617 
	C518.604309,152.157913 519.359741,150.649963 522.017822,150.711899 
	C542.318176,151.184967 562.729919,148.967087 582.900696,151.869690 
	C597.906738,154.029083 608.857544,162.046982 611.871277,178.062088 
	C612.403259,180.889191 613.700562,181.988846 616.552795,181.929382 
	C622.048706,181.814835 627.556274,182.118561 633.046570,181.914642 
	C637.020203,181.767044 638.967041,183.205231 640.053711,187.181366 
	C645.273193,206.279495 650.784302,225.297943 656.205200,244.340897 
	C656.694519,246.059769 657.278992,247.751556 657.961182,249.903854 
	C659.859314,248.116592 660.174011,246.160461 660.698547,244.330368 
	C666.155762,225.291565 671.698853,206.276306 676.965759,187.184921 
	C678.059998,183.218613 680.049927,181.792618 684.013611,181.902893 
	C691.006958,182.097488 698.016907,181.756821 705.005920,182.017120 
	C709.448486,182.182556 710.970093,180.435791 710.673950,176.142456 
	C710.399475,172.162003 710.720337,168.144058 710.578125,164.149780 
	C710.467102,161.031586 711.557312,159.564255 714.873108,159.641434 
	C721.035278,159.784882 727.207031,159.803864 733.367371,159.622086 
	C736.963806,159.515961 738.055176,161.263367 738.015320,164.467987 
	C737.961426,168.799561 738.089111,173.133987 738.000610,177.464355 
	C737.936279,180.611420 739.243408,182.052307 742.460510,181.937531 
	C745.621521,181.824722 748.791199,181.957916 751.957092,181.979797 
	C754.397339,181.996658 755.531311,183.058426 755.498413,185.658615 
	C755.441467,190.151123 755.667786,194.646973 755.758667,199.141739 
	C755.811340,201.749390 754.719055,203.201859 751.901978,203.143921 
	C748.737793,203.078827 745.567993,203.254135 742.404968,203.166794 
	C739.579041,203.088730 738.026794,204.028091 738.041321,207.137802 
	C738.108215,221.467819 737.959656,235.800034 738.161194,250.127640 
	C738.239136,255.666016 742.225586,258.494049 748.272705,257.217743 
	C752.026001,256.425598 753.545166,257.651947 754.180054,261.066711 
	C754.909424,264.989471 755.521240,268.956055 756.606567,272.783813 
	C757.516174,275.992218 756.475281,277.482819 753.419434,278.102997 
	C744.317078,279.950226 735.243347,280.496552 726.349426,277.170593 
	C716.726440,273.571960 710.795044,265.223267 710.702087,254.931229 
	C710.566650,239.934830 710.672363,224.936371 710.585327,209.939331 
	C710.548828,203.641159 709.310181,202.800842 703.131897,203.143448 
	C700.018616,203.316071 699.344177,205.280518 698.558899,207.525162 
	C691.356140,228.113678 684.142090,248.698212 676.778992,269.646179 
M567.393250,222.956589 
	C561.732605,222.974503 556.071960,223.008530 550.411316,223.002930 
	C547.906799,223.000458 546.255432,223.741470 546.275818,226.681366 
	C546.334595,235.171967 546.297852,243.663284 546.280151,252.154282 
	C546.276245,254.029205 546.751099,255.693604 548.974121,255.477234 
	C558.248779,254.574493 567.649231,256.415863 576.839539,254.390625 
	C585.687439,252.440826 590.227478,244.579163 587.941895,235.755905 
	C585.813293,227.539139 579.546448,223.446045 567.393250,222.956589 
z"/>
<path fill="#000000" opacity="1.000000" stroke="none" 
	d="
M225.305161,268.775299 
	C231.901062,282.941193 238.371719,296.750916 244.674484,310.202332 
	C242.928238,312.576935 241.121796,312.047424 239.548492,312.058899 
	C230.720276,312.123230 221.888947,311.981903 213.064072,312.167603 
	C209.597595,312.240509 207.607834,311.025452 206.125885,307.839020 
	C177.128174,245.490051 148.029266,183.188171 119.018150,120.845436 
	C117.419373,117.409790 115.277679,114.166626 114.526711,110.411888 
	C115.864388,108.349052 117.877106,108.955818 119.595963,108.952843 
	C147.914215,108.903748 176.232971,108.984474 204.550461,108.828156 
	C209.193588,108.802521 210.643951,110.460243 210.448624,114.986031 
	C210.132919,122.301773 210.098572,129.654633 210.463760,136.965912 
	C210.703613,141.767700 208.678497,143.032822 204.337738,142.950592 
	C194.180084,142.758179 184.017212,142.852951 173.856750,142.787109 
	C171.862686,142.774200 169.869583,142.559586 167.234100,144.313797 
	C186.518921,185.617004 205.849426,227.018082 225.305161,268.775299 
z"/>
<path fill="#000000" opacity="1.000000" stroke="none" 
	d="
M263.620392,300.674377 
	C288.056885,248.348785 312.342773,196.368744 336.699615,144.236847 
	C332.079773,141.565842 327.184631,144.202225 323.016449,141.807007 
	C323.141510,137.369797 325.647522,133.888016 327.107117,130.087006 
	C329.373535,124.184998 331.945587,118.400963 334.336243,112.545746 
	C335.146912,110.560211 336.220337,108.994621 338.615112,109.001282 
	C355.093628,109.047134 371.572144,109.099518 388.050568,109.173439 
	C388.340118,109.174736 388.628357,109.469604 389.012817,109.679764 
	C389.958191,112.015678 388.240936,113.760246 387.380615,115.607025 
	C364.186432,165.393616 340.933044,215.152603 317.704407,264.923126 
	C311.157867,278.950012 304.560333,292.954620 298.201965,307.066681 
	C296.539917,310.755554 294.384857,312.351868 290.230804,312.205078 
	C281.914490,311.911255 273.580414,312.144104 265.254211,312.084290 
	C263.483582,312.071594 261.565338,312.536163 259.774353,310.946289 
	C259.722229,307.264130 262.289642,304.378387 263.620392,300.674377 
z"/>
<path fill="#000000" opacity="1.000000" stroke="none" 
	d="
M831.519470,249.260406 
	C833.133972,249.451935 834.290955,249.606873 835.452759,249.662430 
	C842.878662,250.017609 843.442932,250.826080 840.462402,257.488068 
	C836.127747,267.176727 828.538330,273.503265 818.763733,276.949005 
	C804.913635,281.831390 790.866150,281.714172 777.305176,275.970215 
	C764.671448,270.619049 756.901978,260.571564 753.556763,247.452789 
	C749.280396,230.681824 750.180908,214.271423 760.233032,199.545837 
	C770.085632,185.112579 784.645325,180.207047 801.491516,181.142548 
	C806.279907,181.408478 811.034790,182.252365 815.620178,183.999771 
	C831.164856,189.923584 839.229797,201.735138 842.223633,217.520508 
	C843.089722,222.086960 843.290527,226.743591 843.405212,231.420059 
	C843.514893,235.892242 842.156494,237.525162 837.460266,237.460480 
	C819.642273,237.215042 801.818848,237.349747 783.997498,237.362152 
	C778.089355,237.366272 777.860168,237.725342 779.082092,243.245041 
	C780.909912,251.501556 785.627258,257.026703 794.054016,258.757507 
	C802.805237,260.554932 810.704590,259.272675 816.074951,251.170502 
	C817.350708,249.245850 818.912781,248.556931 821.090088,248.690369 
	C824.412292,248.894028 827.739258,249.019287 831.519470,249.260406 
M783.880920,219.985153 
	C794.792664,219.985153 805.704407,219.985153 816.562744,219.985153 
	C817.188232,209.518066 809.449524,201.813278 798.775452,201.523514 
	C788.402283,201.241959 779.444885,209.328201 779.197632,219.263840 
	C779.621399,219.449738 780.052979,219.748428 780.519348,219.819534 
	C781.335876,219.944077 782.173706,219.928894 783.880920,219.985153 
z"/>
<path fill="#000000" opacity="1.000000" stroke="none" 
	d="
M454.783630,232.140747 
	C449.098022,215.786621 443.522278,199.811523 437.583710,182.796951 
	C447.262970,182.796951 455.846436,182.731155 464.427826,182.835800 
	C467.108734,182.868500 467.206299,185.372375 467.742950,187.206772 
	C473.809357,207.944290 479.833405,228.694183 486.259277,250.783051 
	C489.303040,240.515137 492.028992,231.418823 494.693848,222.304657 
	C498.056549,210.803879 501.525482,199.330215 504.617889,187.756500 
	C505.680573,183.779175 507.587921,182.428726 511.629913,182.586243 
	C519.067993,182.876129 526.525452,182.668961 533.579956,182.668961 
	C534.843018,184.904694 533.954407,186.261246 533.475525,187.631683 
	C523.371338,216.546494 513.203308,245.439178 503.201447,274.389282 
	C502.014984,277.823517 500.116821,279.097290 496.627502,279.024750 
	C489.632263,278.879303 482.629669,278.868805 475.634796,279.019470 
	C472.240265,279.092560 470.619415,277.669586 469.540527,274.485840 
	C464.785614,260.453979 459.797272,246.501205 454.783630,232.140747 
z"/>
<path fill="#000000" opacity="1.000000" stroke="none" 
	d="
M261.231750,248.099518 
	C258.391541,249.641281 258.317810,247.126862 257.743011,245.918701 
	C252.448685,234.790512 247.320190,223.583450 242.036438,212.450134 
	C241.006180,210.279282 241.158569,208.406219 242.047470,206.265915 
	C254.885864,175.352982 267.706421,144.432449 280.414062,113.465660 
	C281.731445,110.255333 283.474701,108.768349 287.066711,108.850235 
	C295.727783,109.047684 304.396545,108.900230 313.062103,108.916992 
	C314.543488,108.919853 316.076996,108.766090 317.415100,109.722176 
	C318.370300,111.067192 317.507019,112.313828 317.030670,113.466446 
	C298.523468,158.250702 279.980011,203.019974 261.231750,248.099518 
z"/>
</svg>